<?xml version="1.0" encoding="UTF-8" standalone="no"?>
<!-- Created with Inkscape (http://www.inkscape.org/) -->

<svg
   xmlns:dc="http://purl.org/dc/elements/1.1/"
   xmlns:cc="http://creativecommons.org/ns#"
   xmlns:rdf="http://www.w3.org/1999/02/22-rdf-syntax-ns#"
   xmlns:svg="http://www.w3.org/2000/svg"
   xmlns="http://www.w3.org/2000/svg"
   xmlns:xlink="http://www.w3.org/1999/xlink"
   xmlns:sodipodi="http://sodipodi.sourceforge.net/DTD/sodipodi-0.dtd"
   xmlns:inkscape="http://www.inkscape.org/namespaces/inkscape"
   width="250mm"
   height="250mm"
   viewBox="0 0 885.82677 885.82677"
   id="svg5128"
   version="1.1"
   inkscape:version="0.91 r13725"
   sodipodi:docname="axolotl-outline.svg">
  <defs
     id="defs5130">
    <linearGradient
       inkscape:collect="always"
       id="linearGradient6797">
      <stop
         style="stop-color:#000000;stop-opacity:1;"
         offset="0"
         id="stop6799" />
      <stop
         style="stop-color:#000000;stop-opacity:0;"
         offset="1"
         id="stop6801" />
    </linearGradient>
    <linearGradient
       inkscape:collect="always"
       xlink:href="#linearGradient6797"
       id="linearGradient6803"
       x1="13.644324"
       y1="4.7242255"
       x2="638.90222"
       y2="558.2312"
       gradientUnits="userSpaceOnUse" />
    <linearGradient
       inkscape:collect="always"
       xlink:href="#linearGradient6797"
       id="linearGradient6805"
       x1="13.644324"
       y1="4.7242255"
       x2="638.90222"
       y2="558.2312"
       gradientUnits="userSpaceOnUse" />
    <linearGradient
       inkscape:collect="always"
       xlink:href="#linearGradient6797"
       id="linearGradient6843"
       gradientUnits="userSpaceOnUse"
       x1="13.644324"
       y1="4.7242255"
       x2="638.90222"
       y2="558.2312" />
    <linearGradient
       inkscape:collect="always"
       xlink:href="#linearGradient6797"
       id="linearGradient6845"
       gradientUnits="userSpaceOnUse"
       x1="13.644324"
       y1="4.7242255"
       x2="638.90222"
       y2="558.2312" />
    <linearGradient
       inkscape:collect="always"
       xlink:href="#linearGradient6797"
       id="linearGradient6847"
       gradientUnits="userSpaceOnUse"
       x1="13.644324"
       y1="4.7242255"
       x2="638.90222"
       y2="558.2312" />
    <linearGradient
       inkscape:collect="always"
       xlink:href="#linearGradient6797"
       id="linearGradient6849"
       gradientUnits="userSpaceOnUse"
       x1="13.644324"
       y1="4.7242255"
       x2="638.90222"
       y2="558.2312" />
    <linearGradient
       inkscape:collect="always"
       xlink:href="#linearGradient6797"
       id="linearGradient6851"
       gradientUnits="userSpaceOnUse"
       x1="13.644324"
       y1="4.7242255"
       x2="638.90222"
       y2="558.2312" />
    <linearGradient
       inkscape:collect="always"
       xlink:href="#linearGradient6797"
       id="linearGradient6853"
       gradientUnits="userSpaceOnUse"
       x1="13.644324"
       y1="4.7242255"
       x2="638.90222"
       y2="558.2312" />
    <linearGradient
       inkscape:collect="always"
       xlink:href="#linearGradient6797"
       id="linearGradient6855"
       gradientUnits="userSpaceOnUse"
       x1="13.644324"
       y1="4.7242255"
       x2="638.90222"
       y2="558.2312" />
    <linearGradient
       inkscape:collect="always"
       xlink:href="#linearGradient6797"
       id="linearGradient6857"
       gradientUnits="userSpaceOnUse"
       x1="13.644324"
       y1="4.7242255"
       x2="638.90222"
       y2="558.2312" />
    <linearGradient
       inkscape:collect="always"
       xlink:href="#linearGradient6797"
       id="linearGradient6859"
       gradientUnits="userSpaceOnUse"
       x1="13.644324"
       y1="4.7242255"
       x2="638.90222"
       y2="558.2312" />
    <linearGradient
       inkscape:collect="always"
       xlink:href="#linearGradient6797"
       id="linearGradient6861"
       gradientUnits="userSpaceOnUse"
       x1="13.644324"
       y1="4.7242255"
       x2="638.90222"
       y2="558.2312" />
    <linearGradient
       inkscape:collect="always"
       xlink:href="#linearGradient6797"
       id="linearGradient6863"
       gradientUnits="userSpaceOnUse"
       x1="13.644324"
       y1="4.7242255"
       x2="638.90222"
       y2="558.2312" />
    <linearGradient
       inkscape:collect="always"
       xlink:href="#linearGradient6797"
       id="linearGradient6865"
       gradientUnits="userSpaceOnUse"
       x1="13.644324"
       y1="4.7242255"
       x2="638.90222"
       y2="558.2312" />
    <linearGradient
       inkscape:collect="always"
       xlink:href="#linearGradient6797"
       id="linearGradient6867"
       gradientUnits="userSpaceOnUse"
       x1="13.644324"
       y1="4.7242255"
       x2="638.90222"
       y2="558.2312" />
    <linearGradient
       inkscape:collect="always"
       xlink:href="#linearGradient6797"
       id="linearGradient6869"
       gradientUnits="userSpaceOnUse"
       x1="13.644324"
       y1="4.7242255"
       x2="638.90222"
       y2="558.2312" />
    <linearGradient
       inkscape:collect="always"
       xlink:href="#linearGradient6797"
       id="linearGradient6871"
       gradientUnits="userSpaceOnUse"
       x1="13.644324"
       y1="4.7242255"
       x2="638.90222"
       y2="558.2312" />
    <linearGradient
       inkscape:collect="always"
       xlink:href="#linearGradient6797"
       id="linearGradient6873"
       gradientUnits="userSpaceOnUse"
       x1="13.644324"
       y1="4.7242255"
       x2="638.90222"
       y2="558.2312" />
    <linearGradient
       inkscape:collect="always"
       xlink:href="#linearGradient6797"
       id="linearGradient6875"
       gradientUnits="userSpaceOnUse"
       x1="13.644324"
       y1="4.7242255"
       x2="638.90222"
       y2="558.2312" />
    <linearGradient
       inkscape:collect="always"
       xlink:href="#linearGradient6797"
       id="linearGradient6877"
       gradientUnits="userSpaceOnUse"
       x1="13.644324"
       y1="4.7242255"
       x2="638.90222"
       y2="558.2312" />
    <linearGradient
       inkscape:collect="always"
       xlink:href="#linearGradient6797"
       id="linearGradient6879"
       gradientUnits="userSpaceOnUse"
       x1="13.644324"
       y1="4.7242255"
       x2="638.90222"
       y2="558.2312" />
    <linearGradient
       inkscape:collect="always"
       xlink:href="#linearGradient6797"
       id="linearGradient6881"
       gradientUnits="userSpaceOnUse"
       x1="13.644324"
       y1="4.7242255"
       x2="638.90222"
       y2="558.2312" />
    <linearGradient
       inkscape:collect="always"
       xlink:href="#linearGradient6797"
       id="linearGradient6883"
       gradientUnits="userSpaceOnUse"
       x1="13.644324"
       y1="4.7242255"
       x2="638.90222"
       y2="558.2312" />
    <linearGradient
       inkscape:collect="always"
       xlink:href="#linearGradient6797"
       id="linearGradient6885"
       gradientUnits="userSpaceOnUse"
       x1="13.644324"
       y1="4.7242255"
       x2="638.90222"
       y2="558.2312" />
    <linearGradient
       inkscape:collect="always"
       xlink:href="#linearGradient6797"
       id="linearGradient6887"
       gradientUnits="userSpaceOnUse"
       x1="13.644324"
       y1="4.7242255"
       x2="638.90222"
       y2="558.2312" />
    <linearGradient
       inkscape:collect="always"
       xlink:href="#linearGradient6797"
       id="linearGradient6889"
       gradientUnits="userSpaceOnUse"
       x1="13.644324"
       y1="4.7242255"
       x2="638.90222"
       y2="558.2312" />
    <linearGradient
       inkscape:collect="always"
       xlink:href="#linearGradient6797"
       id="linearGradient6891"
       gradientUnits="userSpaceOnUse"
       x1="13.644324"
       y1="4.7242255"
       x2="638.90222"
       y2="558.2312" />
    <linearGradient
       inkscape:collect="always"
       xlink:href="#linearGradient6797"
       id="linearGradient6893"
       gradientUnits="userSpaceOnUse"
       x1="13.644324"
       y1="4.7242255"
       x2="638.90222"
       y2="558.2312" />
    <linearGradient
       inkscape:collect="always"
       xlink:href="#linearGradient6797"
       id="linearGradient6895"
       gradientUnits="userSpaceOnUse"
       x1="13.644324"
       y1="4.7242255"
       x2="638.90222"
       y2="558.2312" />
    <linearGradient
       inkscape:collect="always"
       xlink:href="#linearGradient6797"
       id="linearGradient6897"
       gradientUnits="userSpaceOnUse"
       x1="13.644324"
       y1="4.7242255"
       x2="638.90222"
       y2="558.2312" />
    <linearGradient
       inkscape:collect="always"
       xlink:href="#linearGradient6797"
       id="linearGradient6899"
       gradientUnits="userSpaceOnUse"
       x1="13.644324"
       y1="4.7242255"
       x2="638.90222"
       y2="558.2312" />
    <linearGradient
       inkscape:collect="always"
       xlink:href="#linearGradient6797"
       id="linearGradient6901"
       gradientUnits="userSpaceOnUse"
       x1="13.644324"
       y1="4.7242255"
       x2="638.90222"
       y2="558.2312" />
    <linearGradient
       inkscape:collect="always"
       xlink:href="#linearGradient6797"
       id="linearGradient6903"
       gradientUnits="userSpaceOnUse"
       x1="13.644324"
       y1="4.7242255"
       x2="638.90222"
       y2="558.2312" />
    <linearGradient
       inkscape:collect="always"
       xlink:href="#linearGradient6797"
       id="linearGradient6905"
       gradientUnits="userSpaceOnUse"
       x1="13.644324"
       y1="4.7242255"
       x2="638.90222"
       y2="558.2312" />
  </defs>
  <sodipodi:namedview
     id="base"
     pagecolor="#ffffff"
     bordercolor="#666666"
     borderopacity="1.0"
     inkscape:pageopacity="0.0"
     inkscape:pageshadow="2"
     inkscape:zoom="0.67375"
     inkscape:cx="458.74525"
     inkscape:cy="433.43228"
     inkscape:document-units="px"
     inkscape:current-layer="g6691"
     showgrid="false"
     inkscape:window-width="1920"
     inkscape:window-height="1017"
     inkscape:window-x="-8"
     inkscape:window-y="-8"
     inkscape:window-maximized="1" />
  <metadata
     id="metadata5133">
    <rdf:RDF>
      <cc:Work
         rdf:about="">
        <dc:format>image/svg+xml</dc:format>
        <dc:type
           rdf:resource="http://purl.org/dc/dcmitype/StillImage" />
        <dc:title></dc:title>
      </cc:Work>
    </rdf:RDF>
  </metadata>
  <g
     inkscape:label="strokepath"
     inkscape:groupmode="layer"
     id="layer1"
     transform="translate(0,-166.53543)"
     style="display:none">
    <g
       style="clip-rule:evenodd;fill-rule:evenodd;stroke-width:14.6821003;stroke-linecap:round;stroke-linejoin:round;stroke-miterlimit:1.5;stroke-dasharray:none"
       id="g5837"
       transform="matrix(1.5018871,0,0,1.5018871,-55.267056,148.4482)">
      <g
         id="Inner"
         style="stroke-width:14.6821003;stroke-miterlimit:1.5;stroke-dasharray:none">
        <g
           id="g5775"
           transform="matrix(0.256389,0.0348593,-0.0348593,0.256389,-100.605,114.227)"
           style="stroke-width:56.74287033;stroke-miterlimit:1.5;stroke-dasharray:none" />
        <g
           id="g5779"
           transform="matrix(0.256389,0.0348593,-0.0348593,0.256389,-100.605,114.227)"
           style="stroke-width:56.74287033;stroke-miterlimit:1.5;stroke-dasharray:none" />
        <g
           id="g5783"
           transform="matrix(0.256389,0.0348593,-0.0348593,0.256389,-100.605,114.227)"
           style="stroke-width:56.74287033;stroke-miterlimit:1.5;stroke-dasharray:none" />
        <g
           id="g5787"
           transform="matrix(0.787402,0.107057,-0.107057,0.787402,-1047.27,-655.894)"
           style="stroke-width:18.47626495;stroke-miterlimit:1.5;stroke-dasharray:none" />
        <g
           id="g5791"
           transform="matrix(0.787402,0.107057,-0.107057,0.787402,-1047.27,-655.894)"
           style="stroke-width:18.47626495;stroke-miterlimit:1.5;stroke-dasharray:none" />
        <g
           id="g5795"
           transform="matrix(0.787402,0.107057,-0.107057,0.787402,-1047.27,-655.894)"
           style="stroke-width:18.47626495;stroke-miterlimit:1.5;stroke-dasharray:none" />
        <g
           id="g5799"
           transform="matrix(0.794646,0,0,0.794646,-1153.1,-454.041)"
           style="stroke-width:18.47627831;stroke-miterlimit:1.5;stroke-dasharray:none" />
        <g
           id="g5803"
           transform="matrix(0.787402,0.107057,-0.107057,0.787402,-1047.27,-655.894)"
           style="stroke-width:18.47626495;stroke-miterlimit:1.5;stroke-dasharray:none" />
        <g
           id="g5807"
           transform="matrix(0.787402,0.107057,-0.107057,0.787402,-1047.27,-655.894)"
           style="stroke-width:18.47626495;stroke-miterlimit:1.5;stroke-dasharray:none" />
        <g
           id="g5811"
           transform="matrix(0.787402,0.107057,-0.107057,0.787402,-1047.27,-655.894)"
           style="stroke-width:18.47626495;stroke-miterlimit:1.5;stroke-dasharray:none" />
        <g
           id="g5815"
           transform="matrix(0.787402,0.107057,-0.107057,0.787402,-1047.27,-655.894)"
           style="stroke-width:18.47626495;stroke-miterlimit:1.5;stroke-dasharray:none" />
        <g
           id="g5819"
           transform="matrix(0.787402,0.107057,-0.107057,0.787402,-1047.27,-655.894)"
           style="stroke-width:18.47626495;stroke-miterlimit:1.5;stroke-dasharray:none" />
        <g
           id="g5823"
           transform="matrix(0.787402,0.107057,-0.107057,0.787402,-1047.27,-655.894)"
           style="stroke-width:18.47626495;stroke-miterlimit:1.5;stroke-dasharray:none" />
        <g
           id="g5827"
           transform="matrix(0.787402,0.107057,-0.107057,0.787402,-1047.27,-655.894)"
           style="stroke-width:18.47626495;stroke-miterlimit:1.5;stroke-dasharray:none">
          <path
             style="color:#000000;font-style:normal;font-variant:normal;font-weight:normal;font-stretch:normal;font-size:medium;line-height:normal;font-family:sans-serif;text-indent:0;text-align:start;text-decoration:none;text-decoration-line:none;text-decoration-style:solid;text-decoration-color:#000000;letter-spacing:normal;word-spacing:normal;text-transform:none;direction:ltr;block-progression:tb;writing-mode:lr-tb;baseline-shift:baseline;text-anchor:start;white-space:normal;clip-rule:nonzero;display:inline;overflow:visible;visibility:visible;opacity:1;isolation:auto;mix-blend-mode:normal;color-interpolation:sRGB;color-interpolation-filters:linearRGB;solid-color:#000000;solid-opacity:1;fill:#000000;fill-opacity:1;fill-rule:nonzero;stroke:none;stroke-width:18.47626495;stroke-linecap:butt;stroke-linejoin:miter;stroke-miterlimit:1.5;stroke-dasharray:none;stroke-dashoffset:0;stroke-opacity:1;color-rendering:auto;image-rendering:auto;shape-rendering:auto;text-rendering:auto;enable-background:accumulate"
             d="m 1841.752,663.66797 c -15.8843,-0.24945 -39.4965,0.71752 -66.3692,4.42773 -53.7454,7.42044 -120.6902,25.39554 -162.7285,68.99805 -77.0938,79.96292 -94.5237,193.85671 -44.1094,298.67965 37.38,77.7215 96.9616,114.6934 120.0235,131.8028 3.2431,2.4061 7.8815,9.7396 12.8613,19.9648 4.9798,10.2253 10.6806,23.0293 18.9004,35.959 16.4396,25.8595 44.0175,52.0844 94.2285,58.5645 9.4933,1.2241 17.1564,1.9047 24.1231,1.0722 6.9663,-0.8324 14.0782,-3.9872 18.0605,-10.0762 l 0,0 c 2.523,-3.8577 3.1326,-8.9769 2.2188,-12.9551 -0.9139,-3.9787 -2.8003,-7.1034 -4.9375,-10.0332 -4.2744,-5.8595 -9.9844,-11.161 -15.8125,-16.8594 -8.3498,-8.1639 -16.3427,-16.9568 -20.5996,-25.1386 13.1123,-0.7314 44.1357,-2.6117 80.0742,-5.9258 -0.5871,7.247 0.09,14.6904 3.0879,21.957 5.5396,13.4276 18.4621,24.6689 39.4101,31.6055 29.949,9.9182 44.9592,12.2074 56.295,8.418 5.6678,-1.8948 10.0802,-6.5992 11.6738,-10.9082 1.5936,-4.3091 1.3571,-7.807 1.4238,-9.209 0.3659,-7.6971 -3.3154,-13.9173 -7.2617,-18.7129 -3.9462,-4.7955 -8.5536,-8.6693 -12.4805,-12.0234 -2.0298,-1.7338 -2.6623,-2.4937 -4.0781,-3.834 4.2717,-1.3375 10.1431,-2.7158 15.6406,-3.3555 5.6956,-0.6627 9.923,-0.8673 12.7754,-0.9648 15.2352,12.2652 34.7682,23.9814 58.3028,29.0723 28.5589,6.1713 49.3618,4.2265 64.877,-3.0157 13.3521,-6.2325 21.9912,-16.1194 28.4511,-25.9238 8.4457,3.9999 24.1864,11.7318 34.0137,19.6602 11.2169,9.0493 26.4109,9.3349 37.3496,1.9375 5.4694,-3.6988 9.8282,-9.9027 10.7539,-17.3125 0.9257,-7.4099 -1.3977,-15.37 -6.5703,-23.2872 -15.1006,-23.1091 -28.0412,-40.7455 -36.2168,-51.2598 6.767,-5.0504 14.6165,-12.893 20.3633,-24.1601 6.3498,-12.4495 9.7034,-29.0143 5.0234,-48.1055 -3.6703,-14.9803 -3.3474,-24.5709 -2.8593,-31.8145 0.244,-3.6217 0.6498,-6.6284 0.4082,-10.2539 -0.2417,-3.6254 -2.0813,-8.9246 -6.0078,-11.8711 -3.1512,-2.3646 -7.1547,-3.179 -10.8223,-2.8554 1.1344,-3.4373 2.5326,-6.70216 4.3555,-9.30471 a 9.2390563,9.2390563 0 0 0 0,-0.002 c 5.1427,-7.34804 6.8932,-15.85046 4.6933,-23.12305 -2.1999,-7.27258 -7.7514,-12.56079 -14.1172,-15.48437 -12.4904,-5.73638 -29.667,-3.21356 -40.8984,10.1582 0.026,-9.4399 1.5094,-20.42032 6.2519,-31.36914 4.3492,-10.04089 4.4202,-20.28651 -0.9921,-27.56836 -5.4124,-7.28184 -14.7082,-9.65867 -23.3262,-8.4043 -17.2361,2.50876 -35.2095,18.18263 -42.1973,46.48633 -5.1712,20.93963 -5.245,39.35202 -5.0976,54.121 0.088,8.8503 -0.014,16.1279 -0.5918,21.9141 -18.7452,-8.588 -41.5367,-15.7273 -69.4512,-20.2207 6.0181,-19.30045 1.3926,-38.99728 -9.5332,-55.25971 a 9.2390563,9.2390563 0 0 0 0,-0.002 c -6.5078,-9.67959 -15.5386,-22.93398 -25.7382,-32.96485 -5.0998,-5.01543 -10.4571,-9.36544 -16.9336,-11.82812 -6.4765,-2.46268 -15.1165,-2.17728 -21.4453,2.66211 -6.179,4.72475 -9.2202,11.79616 -10.4317,18.8125 -1.2115,7.01633 -0.8239,14.38826 0.3613,21.79687 2.3705,14.81723 7.9718,29.7265 14.0528,40.35547 1.595,2.79281 1.9315,6.43978 1.625,11.09571 -1.5093,0.0481 -3.5743,0.0743 -5.1348,0.14257 -2.2481,-3.58664 -4.9443,-7.08874 -8.207,-10.40234 l 0,-0.002 c -11.2496,-11.42798 -21.5544,-20.98048 -31.916,-26.72461 -5.1811,-2.87224 -10.5374,-4.91069 -16.4316,-4.91407 -5.893,-0.003 -12.078,2.67572 -16.3184,7.22266 -4.9592,5.31504 -5.6713,13.58346 -3.834,19.30078 1.8373,5.71733 5.0501,10.36305 8.4121,15.20508 0.9355,1.34721 1.8084,2.75225 2.7578,4.11715 -46.5118,3.9136 -89.8055,8.5416 -131.1816,1.9687 -32.864,-5.22023 -59.3433,-28.74521 -75.1855,-59.88273 -15.8423,-31.13751 -20.4737,-69.43687 -10.2325,-101.80273 l 0,0 c 7.407,-23.40551 17.1924,-54.40542 43.2949,-83.83984 26.1025,-29.43443 68.6656,-57.6051 143.334,-73.47461 1.0669,-0.22678 1.9758,-0.30614 3.916,-1.38086 0.9701,-0.53736 2.5451,-1.27067 3.9863,-4.06446 1.4412,-2.79378 0.7536,-7.79502 -0.7558,-9.87695 -3.0189,-4.16386 -4.4559,-3.48272 -5.5782,-3.83203 -1.1222,-0.34931 -2.0523,-0.52794 -3.0898,-0.70117 -4.1499,-0.69292 -9.9641,-1.06278 -17.9062,-1.1875 z m 14.375,19.36133 c 0.1061,0.0159 0.3952,0.0333 0.4882,0.0488 0.533,0.089 0.8531,0.18526 0.6407,0.11915 -0.1135,-0.0353 -0.4452,0.17166 -1.1289,-0.16797 z m -58.1094,1.05859 c -43.4694,16.71146 -73.4159,38.63057 -93.9961,61.83789 -28.875,32.5609 -39.6905,67.15647 -47.086,90.52539 -11.9592,37.79546 -6.5435,80.52201 11.3829,115.75586 17.9263,35.23385 48.9375,63.42537 88.7539,69.74997 47.6486,7.5693 95.287,1.4243 144.9199,-2.5722 1.2228,2.655 2.2196,5.2995 2.7949,7.9121 1.1722,5.3236 2.4845,13.9539 4.3652,23.6211 -3.9978,-1.2293 -8.3072,-2.2228 -13.1035,-1.9668 -5.4354,0.29 -12.1894,2.9444 -15.832,8.8222 a 9.2390563,9.2390563 0 0 0 0,0.01 c -3.4228,5.5352 -2.5087,9.6569 -1.8164,14.3731 0.6922,4.7162 2.1361,9.9622 4.2344,15.748 4.1964,11.5717 11.0477,25.1955 20.3125,38.2364 5.5746,7.8467 12.1284,15.3708 19.4609,22.1074 -5.9697,7.4578 -14.7941,19.8632 -20.3789,34.9668 -44.2421,4.2666 -93.6305,6.9214 -95.7969,7.0351 a 9.2390563,9.2390563 0 0 0 -7.7949,3.0059 9.2390563,9.2390563 0 0 0 -0.375,0.4297 9.2390563,9.2390563 0 0 0 -0.074,0.094 9.2390563,9.2390563 0 0 0 -1.4453,9.086 c 2.8514,18.7532 17.4047,32.4583 28.7578,43.5586 5.9261,5.7941 11.2056,10.9795 13.8008,14.5371 1.0435,1.4306 1.3007,2.1535 1.4941,2.6387 -0.5333,0.4768 -1.366,0.8664 -4.1016,1.1933 -3.9125,0.4675 -10.6018,0.1051 -19.5664,-1.0508 l 0,0 c -45.0069,-5.809 -66.3616,-27.1261 -81,-50.1523 -7.3193,-11.5133 -12.694,-23.4862 -17.8809,-34.1367 -5.1869,-10.6505 -9.8052,-20.2903 -18.4648,-26.7149 -24.9271,-18.4932 -79.3046,-52.0391 -114.3809,-124.9707 -47.4602,-98.68067 -31.2638,-203.14083 40.7617,-277.84763 36.8671,-38.2389 100.2639,-56.38326 151.9512,-63.51953 6.9735,-0.96281 13.6678,-1.70388 20.1094,-2.31055 z m 351.8515,235.02344 c 3.8457,-0.55975 5.3418,0.47703 5.8379,1.14453 0.4962,0.6675 1.5911,2.90806 -1.1347,9.20117 -14.0519,32.44046 -5.6602,62.64166 -3.5938,69.12695 -3.1487,15.92262 -1.0946,31.53492 0.041,44.20122 0.3458,3.8544 -2.4451,8.1241 -5.2402,11.4023 -7.8399,-7.5782 -17.3287,-14.9961 -28.9277,-21.8301 2.2232,-9.5388 1.65,-19.786 1.5371,-31.1054 -0.1451,-14.53897 -0.018,-30.96749 4.5605,-49.50786 5.5923,-22.6513 19.2285,-31.51331 26.9199,-32.63281 z m -181.0449,0.54883 c 0.4454,-0.0123 1.0398,0.21451 2.2735,0.68359 2.4672,0.93817 6.4497,3.70498 10.5449,7.73242 8.1904,8.05489 16.9692,20.5922 23.3613,30.09961 10.4389,15.53931 13.4284,30.39201 4.0664,47.01762 a 9.2390563,9.2390563 0 0 0 -0.6211,1.0254 c -0.7813,1.3213 -1.4665,2.6288 -2.4082,3.9746 -18.4599,26.3818 -0.4687,54.5175 -0.4687,54.5175 a 9.2390563,9.2390563 0 1 0 15.455,-10.123 c 0,0 -11.5877,-17.0226 0.1524,-33.8008 0.058,-0.082 0.091,-0.1674 0.1484,-0.25 1.6491,0.2383 3.2874,0.4458 4.9453,0.709 31.2472,4.9638 55.182,13.0929 73.6778,22.6172 a 9.2390563,9.2390563 0 0 0 3.0957,1.6484 c 14.9523,8.1025 26.1978,17.1003 34.4414,26.0606 a 9.2390563,9.2390563 0 0 0 2.5488,2.9707 c 9.3148,10.9229 14.5666,21.5603 17.334,30.1015 0.7967,3.1874 1.4286,6.4184 2.0293,9.6524 a 9.2390563,9.2390563 0 0 0 0.084,0.3965 c 5.4879,29.9492 2.754,60.9148 -6.4414,76.3476 l 0,0 c -5.8795,9.8661 -12.5291,18.2678 -23.5039,23.3906 -10.9745,5.1227 -27.1582,7.3174 -53.1582,1.6993 l 0,0 c -48.5922,-10.5123 -80.6059,-56.4741 -82.2364,-58.8497 a 9.2390563,9.2390563 0 0 0 -0.8691,-1.3554 c -0.6741,-1.1031 -5.0406,-8.9157 -7.3692,-23.0274 a 9.2390563,9.2390563 0 0 0 -0.5976,-3.7187 c -1.3677,-11.2085 -1.0873,-25.4894 3.5488,-42.5684 a 9.2390563,9.2390563 0 0 0 0.4219,-5.9277 9.2390563,9.2390563 0 0 0 -2.3438,-4.291 c -5.3358,-6.7714 -8.7006,-13.1026 -10.6113,-19.1621 a 9.2390563,9.2390563 0 0 0 -0.8359,-3.42 c -2.17,-9.2269 -1.4237,-17.9521 0.088,-26.873 0.9225,-5.4445 2.097,-10.881 3.1406,-16.3535 a 9.2390563,9.2390563 0 0 0 0.707,-4.0274 c 0.2012,-1.2404 0.4944,-2.4588 0.6504,-3.7089 1.0184,-8.15945 0.8532,-17.11784 -3.834,-25.3184 a 9.2390563,9.2390563 0 0 0 0,-0.004 c -4.7091,-8.23103 -9.9136,-22.02234 -11.8457,-34.09961 -0.9661,-6.03863 -1.1016,-11.6619 -0.3985,-15.73437 0.7032,-4.07248 2.0163,-6.1831 3.4473,-7.27735 0.6406,-0.48981 0.9374,-0.74158 1.3828,-0.7539 z m 225.3574,53.97656 c 1.5784,0.179 3.0348,0.59355 4.2813,1.16601 2.4929,1.14493 3.7347,2.68831 4.1445,4.04297 0.4098,1.35466 0.5858,3.27573 -2.1465,7.17969 -12.7421,18.19561 -12.0565,41.98111 -11.9355,44.75191 -1.0925,3.9232 -1.9568,8.1091 -2.2813,12.8399 -0.9081,13.245 1.2911,23.9569 -0.2812,32.8496 -1.1643,6.585 -3.7575,12.8981 -11.8223,20.2402 -3.0608,-8.635 -8.045,-18.3341 -15.5996,-28.2422 5.5906,-5.6212 12.0025,-14.8283 10.8809,-27.33 -1.2359,-13.784 -2.9427,-27.194 -0.1836,-39.9258 a 9.2390563,9.2390563 0 0 0 0.2969,-1.0762 c 1.6146,-6.78583 4.4547,-13.38746 9.5078,-19.72655 4.5684,-5.73086 10.4034,-7.30655 15.1386,-6.76953 z m -294.0586,0.73633 c 1.3145,7.5e-4 3.9675,0.64689 7.4864,2.59765 7.0378,3.90153 16.8974,12.54622 27.707,23.5273 9.0604,9.2008 12.2226,20.7947 14.3066,32.3574 1.042,5.7814 1.7523,11.4241 3.0781,16.8008 1.0962,4.4453 2.7056,9.1368 6.3281,12.9902 2.2004,7.2499 5.9184,14.6937 11.2637,22.1446 -3.0864,12.515 -4.0129,23.8592 -3.7715,34.0039 -14.8494,-7.7825 -23.9461,-21.9478 -30.2597,-38.4453 -7.891,-20.6191 -10.3995,-43.2567 -13.4317,-57.0274 -1.3231,-6.0091 -3.7162,-11.3276 -6.3691,-16.2988 a 9.2390563,9.2390563 0 0 0 -1.6055,-3.0957 c -3.7688,-6.45312 -7.9729,-12.07353 -11.2851,-16.84376 -3.1317,-4.51022 -5.3776,-8.3815 -6,-10.31836 -0.6224,-1.93686 -0.7939,-0.45996 -0.2481,-1.04492 a 9.2390563,9.2390563 0 0 0 0,-0.002 c 1.2596,-1.35117 1.4805,-1.34841 2.7949,-1.34765 z m 309.17,54.05275 c -0.039,0.5722 -0.022,0.6073 -0.064,1.2383 -0.5344,7.9315 -0.84,20.3554 3.3496,37.455 3.64,14.8488 1.0881,26.2445 -3.5371,35.3125 -4.6251,9.0681 -11.6855,15.6791 -16.4726,18.9493 a 9.2390563,9.2390563 0 0 0 -0.01,0.01 c -4.0837,2.7954 -9.463,1.8366 -13.1211,0.7285 -0.2479,-1.8082 -0.4902,-3.6142 -0.7891,-5.4238 16.003,-11.967 23.3423,-24.782 25.5039,-37.0078 2.3777,-13.4473 -0.1623,-24.8558 0.5196,-34.8008 0.5264,-7.674 2.5726,-13.1038 4.6172,-16.457 z m -312.2598,38.9746 c 1.6446,-0.088 4.789,0.4434 7.9414,1.4902 3.9144,1.2999 7.1224,2.8835 9.4453,4.1153 1.3339,4.6272 2.8091,9.3012 4.5879,13.9492 8.4124,21.9814 23.5203,44.0241 49.7637,52.6601 1.0157,5.0237 2.1651,9.5884 3.4004,13.2852 -8.6192,-0.6682 -16.7251,-3.5306 -24.4668,-8.2891 -2.2225,-1.366 -4.3688,-2.9829 -6.5039,-4.6211 a 9.2390563,9.2390563 0 0 0 -1.1524,-0.8183 c -8.2307,-6.5351 -15.7387,-14.8579 -22.0449,-23.7344 -8.2165,-11.5654 -14.435,-23.9928 -18.0039,-33.834 -1.7844,-4.9206 -2.8954,-9.2226 -3.3223,-12.1308 -0.1441,-0.9823 -0.032,-1.4684 0.031,-2.0411 0.167,1e-4 -0.1556,-0.01 0.3242,-0.031 z m 284.1621,74.166 c 1.7856,0.2286 3.643,0.2891 5.5977,0.2246 5.5583,6.7908 20.559,26.198 39.0937,54.5625 3.4874,5.3379 3.9537,8.8868 3.7031,10.8926 -0.2505,2.0057 -1.0338,3.1231 -2.7695,4.2969 -3.4713,2.3475 -10.9373,2.587 -15.4004,-1.0137 -12.4997,-10.0843 -27.9179,-17.5474 -37.0215,-21.7344 5.1886,-13.7078 7.3303,-30.0199 6.7969,-47.2285 z m -244.1621,18.0801 c 0.3444,0.218 0.6487,0.4915 0.9961,0.7051 12.6345,7.7659 27.5338,12.3863 43.5488,11.0254 2.6076,3.6539 6.5919,8.7354 14.2285,16.7949 -8.8667,1.0986 -18.4124,2.7452 -26.2402,8.4375 -2.8946,2.1049 -5.7017,6.1921 -5.8535,10.4316 -0.1518,4.2396 1.5668,7.246 3.1543,9.4883 3.1749,4.4845 7.0706,7.4614 10.9687,10.791 3.8982,3.3296 7.7542,6.7269 10.2129,9.7149 2.4588,2.9879 3.1233,5.0628 3.0742,6.0957 -0.1064,2.2353 -0.2444,3.2674 -0.2812,3.4589 -0.095,0.013 0.026,-0.068 -0.2188,0.014 -2.5592,0.8556 -15.9978,1.0482 -44.6289,-8.4336 -17.6319,-5.8384 -24.9763,-13.448 -28.1386,-21.1133 -2.7193,-6.5912 -2.335,-14.3588 -0.053,-22.4961 a 9.2390563,9.2390563 0 0 0 0.064,-0.2285 c 0.3563,-1.251 0.6341,-2.4873 1.082,-3.7539 4.4645,-12.6232 12.7421,-24.164 18.084,-30.9316 z"
             id="path5829"
             inkscape:connector-curvature="0" />
        </g>
      </g>
    </g>
  </g>
  <g
     style="display:inline"
     transform="translate(0,-166.53543)"
     id="g6691"
     inkscape:groupmode="layer"
     inkscape:label="outside">
    <g
       transform="matrix(1.5018871,0,0,1.5018871,-55.276514,148.44559)"
       id="g6693"
       style="clip-rule:evenodd;fill-rule:evenodd;stroke-width:14.6821003;stroke-linecap:round;stroke-linejoin:round;stroke-miterlimit:1.5;stroke-dasharray:none">
      <g
         style="stroke-width:14.6821003;stroke-miterlimit:1.5;stroke-dasharray:none"
         id="g6695">
        <g
           style="stroke-width:56.74287033;stroke-miterlimit:1.5;stroke-dasharray:none"
           transform="matrix(0.256389,0.0348593,-0.0348593,0.256389,-100.605,114.227)"
           id="g6697" />
        <g
           style="stroke-width:56.74287033;stroke-miterlimit:1.5;stroke-dasharray:none"
           transform="matrix(0.256389,0.0348593,-0.0348593,0.256389,-100.605,114.227)"
           id="g6699" />
        <g
           style="stroke-width:56.74287033;stroke-miterlimit:1.5;stroke-dasharray:none"
           transform="matrix(0.256389,0.0348593,-0.0348593,0.256389,-100.605,114.227)"
           id="g6701" />
        <g
           style="stroke-width:18.47626495;stroke-miterlimit:1.5;stroke-dasharray:none"
           transform="matrix(0.787402,0.107057,-0.107057,0.787402,-1047.27,-655.894)"
           id="g6703" />
        <g
           style="stroke-width:18.47626495;stroke-miterlimit:1.5;stroke-dasharray:none"
           transform="matrix(0.787402,0.107057,-0.107057,0.787402,-1047.27,-655.894)"
           id="g6705" />
        <g
           style="stroke-width:18.47626495;stroke-miterlimit:1.5;stroke-dasharray:none"
           transform="matrix(0.787402,0.107057,-0.107057,0.787402,-1047.27,-655.894)"
           id="g6707" />
        <g
           style="stroke-width:18.47627831;stroke-miterlimit:1.5;stroke-dasharray:none"
           transform="matrix(0.794646,0,0,0.794646,-1153.1,-454.041)"
           id="g6709" />
        <g
           style="stroke-width:18.47626495;stroke-miterlimit:1.5;stroke-dasharray:none"
           transform="matrix(0.787402,0.107057,-0.107057,0.787402,-1047.27,-655.894)"
           id="g6711" />
        <g
           style="stroke-width:18.47626495;stroke-miterlimit:1.5;stroke-dasharray:none"
           transform="matrix(0.787402,0.107057,-0.107057,0.787402,-1047.27,-655.894)"
           id="g6713" />
        <g
           style="stroke-width:18.47626495;stroke-miterlimit:1.5;stroke-dasharray:none"
           transform="matrix(0.787402,0.107057,-0.107057,0.787402,-1047.27,-655.894)"
           id="g6715" />
        <g
           style="stroke-width:18.47626495;stroke-miterlimit:1.5;stroke-dasharray:none"
           transform="matrix(0.787402,0.107057,-0.107057,0.787402,-1047.27,-655.894)"
           id="g6717" />
        <g
           style="stroke-width:18.47626495;stroke-miterlimit:1.5;stroke-dasharray:none"
           transform="matrix(0.787402,0.107057,-0.107057,0.787402,-1047.27,-655.894)"
           id="g6719" />
        <g
           style="stroke-width:18.47626495;stroke-miterlimit:1.5;stroke-dasharray:none"
           transform="matrix(0.787402,0.107057,-0.107057,0.787402,-1047.27,-655.894)"
           id="g6721" />
        <g
           style="stroke-width:18.47626495;stroke-miterlimit:1.5;stroke-dasharray:none"
           transform="matrix(0.787402,0.107057,-0.107057,0.787402,-1047.27,-655.894)"
           id="g6723">
          <path
             inkscape:connector-curvature="0"
             id="path6725"
             d="m 1841.752,663.66797 c -15.8843,-0.24945 -39.4965,0.71752 -66.3692,4.42773 -53.7454,7.42044 -120.6902,25.39554 -162.7285,68.99805 -77.0938,79.96292 -94.5237,193.85671 -44.1094,298.67965 37.38,77.7215 96.9616,114.6934 120.0235,131.8028 3.2431,2.4061 7.8815,9.7396 12.8613,19.9648 4.9798,10.2253 10.6806,23.0293 18.9004,35.959 16.4396,25.8595 44.0175,52.0844 94.2285,58.5645 9.4933,1.2241 17.1564,1.9047 24.1231,1.0722 6.9663,-0.8324 14.0782,-3.9872 18.0605,-10.0762 l 0,0 c 2.523,-3.8577 3.1326,-8.9769 2.2188,-12.9551 -0.9139,-3.9787 -2.8003,-7.1034 -4.9375,-10.0332 -4.2744,-5.8595 -9.9844,-11.161 -15.8125,-16.8594 -8.3498,-8.1639 -16.3427,-16.9568 -20.5996,-25.1386 13.1123,-0.7314 44.1357,-2.6117 80.0742,-5.9258 -0.5871,7.247 0.09,14.6904 3.0879,21.957 5.5396,13.4276 18.4621,24.6689 39.4101,31.6055 29.949,9.9182 44.9592,12.2074 56.295,8.418 5.6678,-1.8948 10.0802,-6.5992 11.6738,-10.9082 1.5936,-4.3091 1.3571,-7.807 1.4238,-9.209 0.3659,-7.6971 -3.3154,-13.9173 -7.2617,-18.7129 -3.9462,-4.7955 -8.5536,-8.6693 -12.4805,-12.0234 -2.0298,-1.7338 -2.6623,-2.4937 -4.0781,-3.834 4.2717,-1.3375 10.1431,-2.7158 15.6406,-3.3555 5.6956,-0.6627 9.923,-0.8673 12.7754,-0.9648 15.2352,12.2652 34.7682,23.9814 58.3028,29.0723 28.5589,6.1713 49.3618,4.2265 64.877,-3.0157 13.3521,-6.2325 21.9912,-16.1194 28.4511,-25.9238 8.4457,3.9999 24.1864,11.7318 34.0137,19.6602 11.2169,9.0493 26.4109,9.3349 37.3496,1.9375 5.4694,-3.6988 9.8282,-9.9027 10.7539,-17.3125 0.9257,-7.4099 -1.3977,-15.37 -6.5703,-23.2872 -15.1006,-23.1091 -28.0412,-40.7455 -36.2168,-51.2598 6.767,-5.0504 14.6165,-12.893 20.3633,-24.1601 6.3498,-12.4495 9.7034,-29.0143 5.0234,-48.1055 -3.6703,-14.9803 -3.3474,-24.5709 -2.8593,-31.8145 0.244,-3.6217 0.6498,-6.6284 0.4082,-10.2539 -0.2417,-3.6254 -2.0813,-8.9246 -6.0078,-11.8711 -3.1512,-2.3646 -7.1547,-3.179 -10.8223,-2.8554 1.1344,-3.4373 2.5326,-6.70216 4.3555,-9.30471 l 0,-0.002 c 5.1427,-7.34804 6.8932,-15.85046 4.6933,-23.12305 -2.1999,-7.27258 -7.7514,-12.56079 -14.1172,-15.48437 -12.4904,-5.73638 -29.667,-3.21356 -40.8984,10.1582 0.026,-9.4399 1.5094,-20.42032 6.2519,-31.36914 4.3492,-10.04089 4.4202,-20.28651 -0.9921,-27.56836 -5.4124,-7.28184 -14.7082,-9.65867 -23.3262,-8.4043 -17.2361,2.50876 -35.2095,18.18263 -42.1973,46.48633 -5.1712,20.93963 -5.245,39.35202 -5.0976,54.121 0.088,8.8503 -0.014,16.1279 -0.5918,21.9141 -18.7452,-8.588 -41.5367,-15.7273 -69.4512,-20.2207 6.0181,-19.30045 1.3926,-38.99728 -9.5332,-55.25971 l 0,-0.002 c -6.5078,-9.67959 -15.5386,-22.93398 -25.7382,-32.96485 -5.0998,-5.01543 -10.4571,-9.36544 -16.9336,-11.82812 -6.4765,-2.46268 -15.1165,-2.17728 -21.4453,2.66211 -6.179,4.72475 -9.2202,11.79616 -10.4317,18.8125 -1.2115,7.01633 -0.8239,14.38826 0.3613,21.79687 2.3705,14.81723 7.9718,29.7265 14.0528,40.35547 1.595,2.79281 1.9315,6.43978 1.625,11.09571 -1.5093,0.0481 -3.5743,0.0743 -5.1348,0.14257 -2.2481,-3.58664 -4.9443,-7.08874 -8.207,-10.40234 l 0,-0.002 c -11.2496,-11.42798 -21.5544,-20.98048 -31.916,-26.72461 -5.1811,-2.87224 -10.5374,-4.91069 -16.4316,-4.91407 -5.893,-0.003 -12.078,2.67572 -16.3184,7.22266 -4.9592,5.31504 -5.6713,13.58346 -3.834,19.30078 1.8373,5.71733 5.0501,10.36305 8.4121,15.20508 0.9355,1.34721 1.8084,2.75225 2.7578,4.11715 -46.5118,3.9136 -89.8055,8.5416 -131.1816,1.9687 -32.864,-5.22023 -59.3433,-28.74521 -75.1855,-59.88273 -15.8423,-31.13751 -20.4737,-69.43687 -10.2325,-101.80273 l 0,0 c 7.407,-23.40551 17.1924,-54.40542 43.2949,-83.83984 26.1025,-29.43443 68.6656,-57.6051 143.334,-73.47461 1.0669,-0.22678 1.9758,-0.30614 3.916,-1.38086 0.9701,-0.53736 2.5451,-1.27067 3.9863,-4.06446 1.4412,-2.79378 0.7536,-7.79502 -0.7558,-9.87695 -3.0189,-4.16386 -4.4559,-3.48272 -5.5782,-3.83203 -1.1222,-0.34931 -2.0523,-0.52794 -3.0898,-0.70117 -4.1499,-0.69292 -9.9641,-1.06278 -17.9062,-1.1875 z"
             style="color:#000000;font-style:normal;font-variant:normal;font-weight:normal;font-stretch:normal;font-size:medium;line-height:normal;font-family:sans-serif;text-indent:0;text-align:start;text-decoration:none;text-decoration-line:none;text-decoration-style:solid;text-decoration-color:#000000;letter-spacing:normal;word-spacing:normal;text-transform:none;direction:ltr;block-progression:tb;writing-mode:lr-tb;baseline-shift:baseline;text-anchor:start;white-space:normal;clip-rule:nonzero;display:inline;overflow:visible;visibility:visible;opacity:1;isolation:auto;mix-blend-mode:normal;color-interpolation:sRGB;color-interpolation-filters:linearRGB;solid-color:#000000;solid-opacity:1;fill:none;fill-opacity:1;fill-rule:nonzero;stroke:#000000;stroke-width:3.07937765;stroke-linecap:butt;stroke-linejoin:miter;stroke-miterlimit:1.5;stroke-dasharray:none;stroke-dashoffset:0;stroke-opacity:1;color-rendering:auto;image-rendering:auto;shape-rendering:auto;text-rendering:auto;enable-background:accumulate"
             sodipodi:nodetypes="cssscsscsccsssccsccscsccsccscsssccscccccccsscsssccccccssssscccccsccscccsccscssccscc" />
        </g>
      </g>
    </g>
  </g>
  <g
     style="display:inline"
     transform="translate(0,-166.53543)"
     id="g6568"
     inkscape:groupmode="layer"
     inkscape:label="inside">
    <g
       id="g6807"
       transform="matrix(1.037207,0,0,1.037207,-17.100843,-18.375104)">
      <g
         style="clip-rule:evenodd;fill:url(#linearGradient6803);fill-opacity:1;fill-rule:evenodd;stroke-width:14.6821003;stroke-linecap:round;stroke-linejoin:round;stroke-miterlimit:1.5;stroke-dasharray:none"
         id="g6570"
         transform="matrix(1.448011,0,0,1.448011,-36.083662,160.92037)">
        <g
           id="g6572"
           style="fill:url(#linearGradient6873);fill-opacity:1;stroke-width:14.6821003;stroke-miterlimit:1.5;stroke-dasharray:none">
          <g
             id="g6574"
             transform="matrix(0.256389,0.0348593,-0.0348593,0.256389,-100.605,114.227)"
             style="fill:url(#linearGradient6843);fill-opacity:1;stroke-width:56.74287033;stroke-miterlimit:1.5;stroke-dasharray:none" />
          <g
             id="g6576"
             transform="matrix(0.256389,0.0348593,-0.0348593,0.256389,-100.605,114.227)"
             style="fill:url(#linearGradient6845);fill-opacity:1;stroke-width:56.74287033;stroke-miterlimit:1.5;stroke-dasharray:none" />
          <g
             id="g6578"
             transform="matrix(0.256389,0.0348593,-0.0348593,0.256389,-100.605,114.227)"
             style="fill:url(#linearGradient6847);fill-opacity:1;stroke-width:56.74287033;stroke-miterlimit:1.5;stroke-dasharray:none" />
          <g
             id="g6580"
             transform="matrix(0.787402,0.107057,-0.107057,0.787402,-1047.27,-655.894)"
             style="fill:url(#linearGradient6849);fill-opacity:1;stroke-width:18.47626495;stroke-miterlimit:1.5;stroke-dasharray:none" />
          <g
             id="g6582"
             transform="matrix(0.787402,0.107057,-0.107057,0.787402,-1047.27,-655.894)"
             style="fill:url(#linearGradient6851);fill-opacity:1;stroke-width:18.47626495;stroke-miterlimit:1.5;stroke-dasharray:none" />
          <g
             id="g6584"
             transform="matrix(0.787402,0.107057,-0.107057,0.787402,-1047.27,-655.894)"
             style="fill:url(#linearGradient6853);fill-opacity:1;stroke-width:18.47626495;stroke-miterlimit:1.5;stroke-dasharray:none" />
          <g
             id="g6586"
             transform="matrix(0.794646,0,0,0.794646,-1153.1,-454.041)"
             style="fill:url(#linearGradient6855);fill-opacity:1;stroke-width:18.47627831;stroke-miterlimit:1.5;stroke-dasharray:none" />
          <g
             id="g6588"
             transform="matrix(0.787402,0.107057,-0.107057,0.787402,-1047.27,-655.894)"
             style="fill:url(#linearGradient6857);fill-opacity:1;stroke-width:18.47626495;stroke-miterlimit:1.5;stroke-dasharray:none" />
          <g
             id="g6590"
             transform="matrix(0.787402,0.107057,-0.107057,0.787402,-1047.27,-655.894)"
             style="fill:url(#linearGradient6859);fill-opacity:1;stroke-width:18.47626495;stroke-miterlimit:1.5;stroke-dasharray:none" />
          <g
             id="g6592"
             transform="matrix(0.787402,0.107057,-0.107057,0.787402,-1047.27,-655.894)"
             style="fill:url(#linearGradient6861);fill-opacity:1;stroke-width:18.47626495;stroke-miterlimit:1.5;stroke-dasharray:none" />
          <g
             id="g6594"
             transform="matrix(0.787402,0.107057,-0.107057,0.787402,-1047.27,-655.894)"
             style="fill:url(#linearGradient6863);fill-opacity:1;stroke-width:18.47626495;stroke-miterlimit:1.5;stroke-dasharray:none" />
          <g
             id="g6596"
             transform="matrix(0.787402,0.107057,-0.107057,0.787402,-1047.27,-655.894)"
             style="fill:url(#linearGradient6865);fill-opacity:1;stroke-width:18.47626495;stroke-miterlimit:1.5;stroke-dasharray:none" />
          <g
             id="g6598"
             transform="matrix(0.787402,0.107057,-0.107057,0.787402,-1047.27,-655.894)"
             style="fill:url(#linearGradient6867);fill-opacity:1;stroke-width:18.47626495;stroke-miterlimit:1.5;stroke-dasharray:none" />
          <g
             id="g6600"
             transform="matrix(0.787402,0.107057,-0.107057,0.787402,-1047.27,-655.894)"
             style="fill:url(#linearGradient6871);fill-opacity:1;stroke-width:18.47626495;stroke-miterlimit:1.5;stroke-dasharray:none">
            <path
               sodipodi:nodetypes="sccccccscsccscccscscccccccccccccscccccccccccccccccsccccscscccsccccccscscsccccssccssccccccccccccsccccccscccccssccccccccssccccccssssccccccccccc"
               style="color:#000000;font-style:normal;font-variant:normal;font-weight:normal;font-stretch:normal;font-size:medium;line-height:normal;font-family:sans-serif;text-indent:0;text-align:start;text-decoration:none;text-decoration-line:none;text-decoration-style:solid;text-decoration-color:#000000;letter-spacing:normal;word-spacing:normal;text-transform:none;direction:ltr;block-progression:tb;writing-mode:lr-tb;baseline-shift:baseline;text-anchor:start;white-space:normal;clip-rule:nonzero;display:inline;overflow:visible;visibility:visible;opacity:1;isolation:auto;mix-blend-mode:normal;color-interpolation:sRGB;color-interpolation-filters:linearRGB;solid-color:#000000;solid-opacity:1;fill:url(#linearGradient6869);fill-opacity:1;fill-rule:nonzero;stroke:#000000;stroke-width:3.07937765;stroke-linecap:butt;stroke-linejoin:miter;stroke-miterlimit:1.5;stroke-dasharray:none;stroke-dashoffset:0;stroke-opacity:1;color-rendering:auto;image-rendering:auto;shape-rendering:auto;text-rendering:auto;enable-background:accumulate"
               d="m 2149.8691,919.11133 c 3.8457,-0.55975 5.3418,0.47703 5.8379,1.14453 0.4962,0.6675 1.5911,2.90806 -1.1347,9.20117 -14.0519,32.44046 -5.6602,62.64166 -3.5938,69.12695 -3.1487,15.92262 -1.0946,31.53492 0.041,44.20122 0.3458,3.8544 -2.4451,8.1241 -5.2402,11.4023 -7.8399,-7.5782 -17.3287,-14.9961 -28.9277,-21.8301 2.2232,-9.5388 1.65,-19.786 1.5371,-31.1054 -0.1451,-14.53897 -0.018,-30.96749 4.5605,-49.50786 5.5923,-22.6513 19.2285,-31.51331 26.9199,-32.63281 z m -181.0449,0.54883 c 0.4454,-0.0123 1.0398,0.21451 2.2735,0.68359 2.4672,0.93817 6.4497,3.70498 10.5449,7.73242 8.1904,8.05489 16.9692,20.5922 23.3613,30.09961 10.4389,15.53931 13.4284,30.39201 4.0664,47.01762 -0.229,0.328 -0.4365,0.6705 -0.6211,1.0254 -0.7813,1.3213 -1.4665,2.6288 -2.4082,3.9746 -18.4599,26.3818 -0.4687,54.5175 -0.4687,54.5175 2.7536,4.3721 8.5577,5.6361 12.88,2.805 4.3224,-2.8311 5.4827,-8.6568 2.575,-12.928 0,0 -11.5877,-17.0226 0.1524,-33.8008 0.058,-0.082 0.091,-0.1674 0.1484,-0.25 1.6491,0.2383 3.2874,0.4458 4.9453,0.709 31.2472,4.9638 55.182,13.0929 73.6778,22.6172 0.9172,0.7421 1.968,1.3016 3.0957,1.6484 14.9523,8.1025 26.1978,17.1003 34.4414,26.0606 0.6277,1.1609 1.4968,2.1739 2.5488,2.9707 9.3148,10.9229 14.5666,21.5603 17.334,30.1015 0.7967,3.1874 1.4286,6.4184 2.0293,9.6524 0.025,0.1328 0.053,0.265 0.084,0.3965 5.4879,29.9492 2.754,60.9148 -6.4414,76.3476 l 0,0 c -5.8795,9.8661 -12.5291,18.2678 -23.5039,23.3906 -10.9745,5.1227 -27.1582,7.3174 -53.1582,1.6993 l 0,0 c -48.5922,-10.5123 -80.6059,-56.4741 -82.2364,-58.8497 -0.2497,-0.4762 -0.5405,-0.9298 -0.8691,-1.3554 -0.6741,-1.1031 -5.0406,-8.9157 -7.3692,-23.0274 0.058,-1.2675 -0.1452,-2.5333 -0.5976,-3.7187 -1.3677,-11.2085 -1.0873,-25.4894 3.5488,-42.5684 0.7896,-1.8755 0.9379,-3.9593 0.4219,-5.9277 -0.3818,-1.6149 -1.1914,-3.0971 -2.3438,-4.291 -5.3358,-6.7714 -8.7006,-13.1026 -10.6113,-19.1621 -0.057,-1.183 -0.3406,-2.3441 -0.8359,-3.42 -2.17,-9.2269 -1.4237,-17.9521 0.088,-26.873 0.9225,-5.4445 2.097,-10.881 3.1406,-16.3535 0.5335,-1.2728 0.7751,-2.649 0.707,-4.0274 0.2012,-1.2404 0.4944,-2.4588 0.6504,-3.7089 1.0184,-8.15945 0.8532,-17.11784 -3.834,-25.3184 l 0,-0.004 c -4.7091,-8.23103 -9.9136,-22.02234 -11.8457,-34.09961 -0.9661,-6.03863 -1.1016,-11.6619 -0.3985,-15.73437 0.7032,-4.07248 2.0163,-6.1831 3.4473,-7.27735 0.6406,-0.48981 0.9374,-0.74158 1.3828,-0.7539 z m 225.3574,53.97656 c 1.5784,0.179 3.0348,0.59355 4.2813,1.16601 2.4929,1.14493 3.7347,2.68831 4.1445,4.04297 0.4098,1.35466 0.5858,3.27573 -2.1465,7.17969 -12.7421,18.19561 -12.0565,41.98111 -11.9355,44.75191 -1.0925,3.9232 -1.9568,8.1091 -2.2813,12.8399 -0.9081,13.245 1.2911,23.9569 -0.2812,32.8496 -1.1643,6.585 -3.7575,12.8981 -11.8223,20.2402 -3.0608,-8.635 -8.045,-18.3341 -15.5996,-28.2422 5.5906,-5.6212 12.0025,-14.8283 10.8809,-27.33 -1.2359,-13.784 -2.9427,-27.194 -0.1836,-39.9258 0.1206,-0.3524 0.2197,-0.7118 0.2969,-1.0762 1.6146,-6.78583 4.4547,-13.38746 9.5078,-19.72655 4.5684,-5.73086 10.4034,-7.30655 15.1386,-6.76953 z m -294.0586,0.73633 c 1.3145,7.5e-4 3.9675,0.64689 7.4864,2.59765 7.0378,3.90153 16.8974,12.54622 27.707,23.5273 9.0604,9.2008 12.2226,20.7947 14.3066,32.3574 1.042,5.7814 1.7523,11.4241 3.0781,16.8008 1.0962,4.4453 2.7056,9.1368 6.3281,12.9902 2.2004,7.2499 5.9184,14.6937 11.2637,22.1446 -3.0864,12.515 -4.0129,23.8592 -3.7715,34.0039 -14.8494,-7.7825 -23.9461,-21.9478 -30.2597,-38.4453 -7.891,-20.6191 -10.3995,-43.2567 -13.4317,-57.0274 -1.3231,-6.0091 -3.7162,-11.3276 -6.3691,-16.2988 -0.3338,-1.1245 -0.8787,-2.1751 -1.6055,-3.0957 -3.7688,-6.45312 -7.9729,-12.07353 -11.2851,-16.84376 -3.1317,-4.51022 -5.3776,-8.3815 -6,-10.31836 -0.6224,-1.93686 -0.7939,-0.45996 -0.2481,-1.04492 l 0,-0.002 c 1.2596,-1.35117 1.4805,-1.34841 2.7949,-1.34765 z m 309.17,54.05275 c -0.039,0.5722 -0.022,0.6073 -0.064,1.2383 -0.5344,7.9315 -0.84,20.3554 3.3496,37.455 3.64,14.8488 1.0881,26.2445 -3.5371,35.3125 -4.6251,9.0681 -11.6855,15.6791 -16.4726,18.9493 l -0.01,0.01 c -4.0837,2.7954 -9.463,1.8366 -13.1211,0.7285 -0.2479,-1.8082 -0.4902,-3.6142 -0.7891,-5.4238 16.003,-11.967 23.3423,-24.782 25.5039,-37.0078 2.3777,-13.4473 -0.1623,-24.8558 0.5196,-34.8008 0.5264,-7.674 2.5726,-13.1038 4.6172,-16.457 z m -312.2598,38.9746 c 1.6446,-0.088 4.789,0.4434 7.9414,1.4902 3.9144,1.2999 7.1224,2.8835 9.4453,4.1153 1.3339,4.6272 2.8091,9.3012 4.5879,13.9492 8.4124,21.9814 23.5203,44.0241 49.7637,52.6601 1.0157,5.0237 2.1651,9.5884 3.4004,13.2852 -8.6192,-0.6682 -16.7251,-3.5306 -24.4668,-8.2891 -2.2225,-1.366 -4.3688,-2.9829 -6.5039,-4.6211 -0.3627,-0.3018 -0.7479,-0.5754 -1.1524,-0.8183 -8.2307,-6.5351 -15.7387,-14.8579 -22.0449,-23.7344 -8.2165,-11.5654 -14.435,-23.9928 -18.0039,-33.834 -1.7844,-4.9206 -2.8954,-9.2226 -3.3223,-12.1308 -0.1441,-0.9823 -0.032,-1.4684 0.031,-2.0411 0.167,1e-4 -0.1556,-0.01 0.3242,-0.031 z m 284.1621,74.166 c 1.7856,0.2286 3.643,0.2891 5.5977,0.2246 5.5583,6.7908 20.559,26.198 39.0937,54.5625 3.4874,5.3379 3.9537,8.8868 3.7031,10.8926 -0.2505,2.0057 -1.0338,3.1231 -2.7695,4.2969 -3.4713,2.3475 -10.9373,2.587 -15.4004,-1.0137 -12.4997,-10.0843 -27.9179,-17.5474 -37.0215,-21.7344 5.1886,-13.7078 7.3303,-30.0199 6.7969,-47.2285 z m -244.1621,18.0801 c 0.3444,0.218 0.6487,0.4915 0.9961,0.7051 12.6345,7.7659 27.5338,12.3863 43.5488,11.0254 2.6076,3.6539 6.5919,8.7354 14.2285,16.7949 -8.8667,1.0986 -18.4124,2.7452 -26.2402,8.4375 -2.8946,2.1049 -5.7017,6.1921 -5.8535,10.4316 -0.1518,4.2396 1.5668,7.246 3.1543,9.4883 3.1749,4.4845 7.0706,7.4614 10.9687,10.791 3.8982,3.3296 7.7542,6.7269 10.2129,9.7149 2.4588,2.9879 3.1233,5.0628 3.0742,6.0957 -0.1064,2.2353 -0.2444,3.2674 -0.2812,3.4589 -0.095,0.013 0.026,-0.068 -0.2188,0.014 -2.5592,0.8556 -15.9978,1.0482 -44.6289,-8.4336 -17.6319,-5.8384 -24.9763,-13.448 -28.1386,-21.1133 -2.7193,-6.5912 -2.335,-14.3588 -0.053,-22.4961 0.022,-0.076 0.044,-0.1521 0.064,-0.2285 0.3563,-1.251 0.6341,-2.4873 1.082,-3.7539 4.4645,-12.6232 12.7421,-24.164 18.084,-30.9316 z"
               id="path6602"
               inkscape:connector-curvature="0" />
          </g>
        </g>
      </g>
      <g
         style="clip-rule:evenodd;display:inline;fill:url(#linearGradient6805);fill-opacity:1;fill-rule:evenodd;stroke-width:14.6821003;stroke-linecap:round;stroke-linejoin:round;stroke-miterlimit:1.5;stroke-dasharray:none"
         id="g6606"
         transform="matrix(1.448011,0,0,1.448011,-36.083662,160.92037)">
        <g
           id="g6608"
           style="fill:url(#linearGradient6905);fill-opacity:1;stroke-width:14.6821003;stroke-miterlimit:1.5;stroke-dasharray:none">
          <g
             id="g6610"
             transform="matrix(0.256389,0.0348593,-0.0348593,0.256389,-100.605,114.227)"
             style="fill:url(#linearGradient6875);fill-opacity:1;stroke-width:56.74287033;stroke-miterlimit:1.5;stroke-dasharray:none" />
          <g
             id="g6612"
             transform="matrix(0.256389,0.0348593,-0.0348593,0.256389,-100.605,114.227)"
             style="fill:url(#linearGradient6877);fill-opacity:1;stroke-width:56.74287033;stroke-miterlimit:1.5;stroke-dasharray:none" />
          <g
             id="g6614"
             transform="matrix(0.256389,0.0348593,-0.0348593,0.256389,-100.605,114.227)"
             style="fill:url(#linearGradient6879);fill-opacity:1;stroke-width:56.74287033;stroke-miterlimit:1.5;stroke-dasharray:none" />
          <g
             id="g6616"
             transform="matrix(0.787402,0.107057,-0.107057,0.787402,-1047.27,-655.894)"
             style="fill:url(#linearGradient6881);fill-opacity:1;stroke-width:18.47626495;stroke-miterlimit:1.5;stroke-dasharray:none" />
          <g
             id="g6618"
             transform="matrix(0.787402,0.107057,-0.107057,0.787402,-1047.27,-655.894)"
             style="fill:url(#linearGradient6883);fill-opacity:1;stroke-width:18.47626495;stroke-miterlimit:1.5;stroke-dasharray:none" />
          <g
             id="g6620"
             transform="matrix(0.787402,0.107057,-0.107057,0.787402,-1047.27,-655.894)"
             style="fill:url(#linearGradient6885);fill-opacity:1;stroke-width:18.47626495;stroke-miterlimit:1.5;stroke-dasharray:none" />
          <g
             id="g6622"
             transform="matrix(0.794646,0,0,0.794646,-1153.1,-454.041)"
             style="fill:url(#linearGradient6887);fill-opacity:1;stroke-width:18.47627831;stroke-miterlimit:1.5;stroke-dasharray:none" />
          <g
             id="g6624"
             transform="matrix(0.787402,0.107057,-0.107057,0.787402,-1047.27,-655.894)"
             style="fill:url(#linearGradient6889);fill-opacity:1;stroke-width:18.47626495;stroke-miterlimit:1.5;stroke-dasharray:none" />
          <g
             id="g6626"
             transform="matrix(0.787402,0.107057,-0.107057,0.787402,-1047.27,-655.894)"
             style="fill:url(#linearGradient6891);fill-opacity:1;stroke-width:18.47626495;stroke-miterlimit:1.5;stroke-dasharray:none" />
          <g
             id="g6628"
             transform="matrix(0.787402,0.107057,-0.107057,0.787402,-1047.27,-655.894)"
             style="fill:url(#linearGradient6893);fill-opacity:1;stroke-width:18.47626495;stroke-miterlimit:1.5;stroke-dasharray:none" />
          <g
             id="g6630"
             transform="matrix(0.787402,0.107057,-0.107057,0.787402,-1047.27,-655.894)"
             style="fill:url(#linearGradient6895);fill-opacity:1;stroke-width:18.47626495;stroke-miterlimit:1.5;stroke-dasharray:none" />
          <g
             id="g6632"
             transform="matrix(0.787402,0.107057,-0.107057,0.787402,-1047.27,-655.894)"
             style="fill:url(#linearGradient6897);fill-opacity:1;stroke-width:18.47626495;stroke-miterlimit:1.5;stroke-dasharray:none" />
          <g
             id="g6634"
             transform="matrix(0.787402,0.107057,-0.107057,0.787402,-1047.27,-655.894)"
             style="fill:url(#linearGradient6899);fill-opacity:1;stroke-width:18.47626495;stroke-miterlimit:1.5;stroke-dasharray:none" />
          <g
             id="g6636"
             transform="matrix(0.787402,0.107057,-0.107057,0.787402,-1047.27,-655.894)"
             style="fill:url(#linearGradient6903);fill-opacity:1;stroke-width:18.47626495;stroke-miterlimit:1.5;stroke-dasharray:none">
            <path
               sodipodi:nodetypes="cscscccccccccscccccccsccsccsssssscc"
               style="color:#000000;font-style:normal;font-variant:normal;font-weight:normal;font-stretch:normal;font-size:medium;line-height:normal;font-family:sans-serif;text-indent:0;text-align:start;text-decoration:none;text-decoration-line:none;text-decoration-style:solid;text-decoration-color:#000000;letter-spacing:normal;word-spacing:normal;text-transform:none;direction:ltr;block-progression:tb;writing-mode:lr-tb;baseline-shift:baseline;text-anchor:start;white-space:normal;clip-rule:nonzero;display:inline;overflow:visible;visibility:visible;opacity:1;isolation:auto;mix-blend-mode:normal;color-interpolation:sRGB;color-interpolation-filters:linearRGB;solid-color:#000000;solid-opacity:1;fill:url(#linearGradient6901);fill-opacity:1;fill-rule:nonzero;stroke:#000000;stroke-width:3.07937765;stroke-linecap:butt;stroke-linejoin:miter;stroke-miterlimit:1.5;stroke-dasharray:none;stroke-dashoffset:0;stroke-opacity:1;color-rendering:auto;image-rendering:auto;shape-rendering:auto;text-rendering:auto;enable-background:accumulate"
               d="m 1798.0176,684.08789 c -43.4694,16.71146 -73.4159,38.63057 -93.9961,61.83789 -28.875,32.5609 -39.6905,67.15647 -47.086,90.52539 -11.9592,37.79546 -6.5435,80.52201 11.3829,115.75586 17.9263,35.23385 48.9375,63.42537 88.7539,69.74997 47.6486,7.5693 95.287,1.4243 144.9199,-2.5722 1.2228,2.655 2.2196,5.2995 2.7949,7.9121 1.1722,5.3236 2.4845,13.9539 4.3652,23.6211 -3.9978,-1.2293 -8.3072,-2.2228 -13.1035,-1.9668 -5.4354,0.29 -12.1894,2.9444 -15.832,8.8222 l 0,0.01 c -3.4228,5.5352 -2.5087,9.6569 -1.8164,14.3731 0.6922,4.7162 2.1361,9.9622 4.2344,15.748 4.1964,11.5717 11.0477,25.1955 20.3125,38.2364 5.5746,7.8467 12.1284,15.3708 19.4609,22.1074 -5.9697,7.4578 -14.7941,19.8632 -20.3789,34.9668 -44.2421,4.2666 -93.6305,6.9214 -95.7969,7.0351 -2.9288,-0.2971 -5.8239,0.8193 -7.7949,3.0059 -0.1294,0.1393 -0.2545,0.2826 -0.375,0.4297 -0.025,0.031 -0.05,0.062 -0.074,0.094 -2.0627,2.5564 -2.613,6.0158 -1.4453,9.086 2.8514,18.7532 17.4047,32.4583 28.7578,43.5586 5.9261,5.7941 11.2056,10.9795 13.8008,14.5371 1.0435,1.4306 1.3007,2.1535 1.4941,2.6387 -0.5333,0.4768 -1.366,0.8664 -4.1016,1.1933 -3.9125,0.4675 -10.6018,0.1051 -19.5664,-1.0508 l 0,0 c -45.0069,-5.809 -66.3616,-27.1261 -81,-50.1523 -7.3193,-11.5133 -12.694,-23.4862 -17.8809,-34.1367 -5.1869,-10.6505 -9.8052,-20.2903 -18.4648,-26.7149 -24.9271,-18.4932 -79.3046,-52.0391 -114.3809,-124.9707 -47.4602,-98.68067 -31.2638,-203.14083 40.7617,-277.84763 36.8671,-38.2389 100.2639,-56.38326 151.9512,-63.51953 6.9735,-0.96281 13.6678,-1.70388 20.1094,-2.31055 z"
               id="path6638"
               inkscape:connector-curvature="0" />
          </g>
        </g>
      </g>
    </g>
  </g>
</svg>
