<?xml version="1.0" encoding="UTF-8" standalone="no"?>
<svg
   xmlns:dc="http://purl.org/dc/elements/1.1/"
   xmlns:cc="http://creativecommons.org/ns#"
   xmlns:rdf="http://www.w3.org/1999/02/22-rdf-syntax-ns#"
   xmlns:svg="http://www.w3.org/2000/svg"
   xmlns="http://www.w3.org/2000/svg"
   xmlns:sodipodi="http://sodipodi.sourceforge.net/DTD/sodipodi-0.dtd"
   xmlns:inkscape="http://www.inkscape.org/namespaces/inkscape"
   width="100%"
   height="100%"
   viewBox="0 0 790 730"
   version="1.1"
   xml:space="preserve"
   style="fill-rule:evenodd;clip-rule:evenodd;stroke-linejoin:round;stroke-miterlimit:2;"
   id="svg2"
   inkscape:version="0.91 r13725"
   sodipodi:docname="axolotl-inner.svg"><metadata
     id="metadata9"><rdf:RDF><cc:Work
         rdf:about=""><dc:format>image/svg+xml</dc:format><dc:type
           rdf:resource="http://purl.org/dc/dcmitype/StillImage" /></cc:Work></rdf:RDF></metadata><defs
     id="defs7" /><sodipodi:namedview
     pagecolor="#ffffff"
     bordercolor="#666666"
     borderopacity="1"
     objecttolerance="10"
     gridtolerance="10"
     guidetolerance="10"
     inkscape:pageopacity="0"
     inkscape:pageshadow="2"
     inkscape:window-width="1920"
     inkscape:window-height="1017"
     id="namedview5"
     showgrid="false"
     inkscape:zoom="0.91439562"
     inkscape:cx="672.89634"
     inkscape:cy="201.88726"
     inkscape:window-x="-8"
     inkscape:window-y="-8"
     inkscape:window-maximized="1"
     inkscape:current-layer="svg2" /><path
     id="Inner"
     d="m 293.324,592.321 c 17.552,1.627 63.975,5.7 88.923,5.697 -2.121,7.353 -2.803,14.955 -1.191,22.419 2.783,12.884 12.177,25.762 33.434,36.161 17.46,8.542 29.525,12.348 37.921,13.433 6.717,0.868 11.478,0.067 14.951,-1.415 5.023,-2.144 7.759,-5.754 9.505,-9.501 1.127,-2.419 1.621,-4.896 2.49,-6.451 1.089,-1.95 1.422,-4.385 0.457,-7.234 -0.7,-2.064 -2.34,-4.671 -4.666,-7.484 -4.068,-4.919 -10.471,-10.965 -14.558,-16.339 -0.863,-1.136 -1.764,-2.784 -2.279,-3.782 4.225,-1.841 10.526,-2.352 16.675,-2.492 8.201,-0.187 16.209,0.511 19.827,0.887 13.301,14.254 31.11,28.668 53.338,36.734 27.903,10.124 47.715,10.324 62.561,5.706 14.292,-4.446 24.192,-13.392 32.258,-23.151 7.64,5.074 25.385,17.243 33.897,26.254 10.612,11.235 29.184,11.426 38.568,2.212 6.252,-6.139 9.307,-16.587 2.357,-31.211 -12.704,-26.728 -24.191,-47.639 -30.492,-58.398 0.231,-0.107 0.461,-0.219 0.691,-0.334 14.218,-7.132 39.442,-28.043 35.412,-66.202 -2.346,-22.213 2.07,-33.896 3.028,-40.74 0.748,-5.339 -0.219,-8.917 -3.172,-11.83 -3.096,-3.055 -7.573,-4.256 -12.659,-2.82 -0.391,0.111 -0.789,0.241 -1.193,0.39 2.116,-5.369 5.022,-10.848 8.974,-15.124 7.532,-8.151 8.454,-16.447 5.95,-23.205 -1.747,-4.716 -5.312,-8.804 -10.06,-11.639 -10.147,-6.057 -25.85,-6.388 -37.94,5.165 -2.117,2.024 -4.025,4.105 -5.745,6.235 0.427,-11.473 3.012,-26.73 11.783,-41.231 4.733,-7.825 5.602,-14.613 4.329,-19.834 -1.468,-6.02 -5.703,-10.429 -11.752,-12.6 -4.623,-1.66 -10.416,-1.962 -16.658,-0.421 -12.903,3.184 -28.247,14.433 -37.292,37.264 -9.253,23.356 -10.036,43.112 -11.36,58.78 -0.687,8.131 -1.38,15.031 -4.109,20.529 -17.993,-12.116 -41.256,-23.354 -71.239,-32.388 -0.974,-0.294 -1.947,-0.583 -2.92,-0.867 10.498,-18.248 8.782,-37.89 -0.445,-56.673 -7.516,-15.298 -19.403,-37.857 -31.714,-46.697 -7.099,-5.097 -14.422,-6.292 -21.499,-2.26 -8.119,4.624 -12.555,14.824 -13.548,27.342 -1.293,16.285 2.854,36.493 8.021,49.272 1.575,3.895 1.467,7.977 0.654,12.296 -0.235,1.251 -0.53,2.519 -0.87,3.805 -3.687,-0.48 -6.147,-0.623 -10.221,-1.037 -1.712,-4.276 -3.994,-8.5 -7.037,-12.565 -11.956,-15.974 -23.08,-28.411 -32.785,-33.605 -8.513,-4.557 -16.278,-4.401 -23.234,1.281 -7.002,5.72 -6.841,14.134 -2.208,24.579 2.094,4.719 5.139,10.002 7.99,15.699 -48.255,-2.559 -93.938,-3.148 -137.027,-16.132 -33.424,-10.071 -56.985,-38.204 -68.616,-71.559 -11.758,-33.719 -11.373,-72.871 3.71,-104.775 10.222,-21.622 24.404,-52.009 55.032,-78.346 30.719,-26.414 77.922,-48.64 153.851,-54.291 4.699,-0.349 6.306,-3.087 6.721,-4.081 0.65,-1.563 1.329,-6.226 -4.245,-8.562 C 406.532,64.097 363.676,56.865 312.349,58.787 261.115,60.705 201.514,71.732 160.42,104.191 74.17,172.316 41.99,280.66 77.578,390.564 c 26.169,80.814 78.604,124.198 100.331,145.412 2.894,2.826 5.026,7.064 7.079,12.168 3.587,8.92 6.665,20.282 11.046,32.447 11.531,32.018 31.643,69.276 89.832,84.971 12.65,3.412 19.907,4.994 24.478,5.263 4.58,0.271 7.33,-0.615 9.56,-2.007 1.95,-1.217 3.475,-3.025 5.588,-5.461 4.849,-5.592 3.872,-13.591 -2.122,-22.935 -4.912,-7.659 -13.042,-16.812 -19.837,-26.738 -4.677,-6.834 -8.805,-14.02 -10.209,-21.363 z M 409.648,417.042 c -51.392,-2.917 -99.923,-3.168 -145.61,-16.934 -37.038,-11.16 -63.473,-42.018 -76.361,-78.979 -12.761,-36.597 -12.186,-79.085 4.184,-113.712 10.746,-22.731 25.811,-54.566 58.01,-82.253 26.839,-23.078 65.624,-43.355 123.988,-52.835 -27.256,-2.61 -66.062,-3.605 -105.214,2.296 -36.393,5.486 -73.134,16.899 -100.904,38.834 -82.348,65.044 -112.904,168.535 -78.926,273.466 25.331,78.227 76.314,120.066 97.345,140.6 3.893,3.801 7.024,9.347 9.785,16.211 3.633,9.033 6.765,20.534 11.201,32.853 10.512,29.19 28.748,63.261 81.796,77.569 8.358,2.254 14.161,3.684 18.338,4.403 3.239,0.557 4.997,0.87 6.261,0.297 1.251,-0.568 1.804,-1.828 3.027,-3.239 0.854,-0.985 0.223,-2.218 -0.356,-3.668 -1.376,-3.445 -4.136,-7.344 -7.393,-11.658 -6.7,-8.872 -15.436,-19.159 -21.209,-30.018 -4.258,-8.01 -6.919,-16.348 -6.577,-24.689 0.002,-0.067 0.006,-0.135 0.011,-0.203 l 0.002,-0.031 c 0.042,-0.584 0.169,-1.143 0.368,-1.666 0.347,-0.916 0.914,-1.715 1.629,-2.342 l 0.031,-0.027 0.013,-0.011 c 0.722,-0.621 1.593,-1.069 2.548,-1.284 0.546,-0.123 1.117,-0.17 1.701,-0.13 l 0.031,0.002 c 0.065,0.005 0.129,0.01 0.193,0.017 1.996,0.198 72.013,7.104 99.367,6.241 3.438,-6.931 7.835,-13.398 12.35,-19.017 5.583,-6.949 11.231,-12.577 15.05,-16.126 -15.295,-17.485 -25.587,-40.432 -30.668,-58.856 -3.036,-11.007 -4.195,-20.466 -3.672,-26.365 0.343,-3.871 1.504,-6.643 2.855,-8.282 4.127,-5.004 10.183,-6.315 16.831,-5.024 4.608,0.895 9.525,3.162 13.743,5.541 -0.777,-11.982 -0.784,-22.59 -1.373,-29.807 -0.311,-3.811 -1.186,-7.545 -2.395,-11.174 z m 254.426,157.261 c -1.729,19.808 -6.624,38.081 -14.255,51.414 8.98,5.799 26.273,18.025 35.634,27.936 5.986,6.336 16.414,7.092 21.707,1.895 3.538,-3.475 3.898,-9.438 -0.036,-17.714 -14.233,-29.946 -26.874,-52.437 -32.136,-61.07 -4.098,-0.185 -7.847,-1.236 -10.914,-2.461 z M 422.601,559.441 c -3.478,3.217 -8.826,8.507 -14.117,15.092 -4.412,5.492 -8.891,11.899 -12.077,18.756 -0.168,0.686 -0.457,1.328 -0.844,1.901 -3.099,7.315 -4.619,15.084 -2.962,22.754 2.203,10.198 10.253,19.813 27.079,28.045 13.273,6.493 23.092,10.087 30.433,11.663 5.978,1.284 9.926,1.248 12.612,0.101 2.378,-1.015 3.252,-3.043 3.931,-4.801 0.605,-1.564 1.092,-3.066 1.604,-4.342 -0.386,-0.641 -1.022,-1.648 -1.602,-2.38 -3.621,-4.579 -9.613,-10.286 -13.944,-15.55 -3.019,-3.67 -5.261,-7.249 -6.131,-10.232 -0.741,-2.537 -0.672,-4.857 0.053,-6.886 0.777,-2.174 2.3,-4.163 5.041,-5.638 4.2,-2.26 10.351,-3.566 16.95,-4.095 5.177,-0.415 10.638,-0.393 15.445,-0.203 -8.486,-10.873 -14.07,-20.401 -16.707,-25.243 -17.432,-0.342 -32.39,-7.775 -44.764,-18.942 z M 517.3,423.288 c 12.352,-16.229 11.403,-34.199 3.022,-51.259 -5.876,-11.962 -14.412,-28.967 -23.83,-38.643 -2.113,-2.172 -4.243,-3.949 -6.42,-5.054 -2.173,-1.104 -4.366,-1.43 -6.517,-0.205 -5.204,2.964 -6.983,9.99 -7.619,18.013 -1.152,14.515 2.591,32.52 7.197,43.91 3.485,8.617 1.985,17.899 -1.156,28.113 -0.092,0.545 -0.256,1.06 -0.482,1.536 -0.792,2.477 -1.669,5.01 -2.586,7.602 -6.081,17.194 -13.388,37.666 2.166,63.426 0.505,0.835 0.778,1.746 0.838,2.658 0.062,0.912 -0.087,1.851 -0.476,2.746 -18.147,41.801 -5.759,72.38 -5.139,73.859 0.688,1.414 9.079,18.334 25.018,36.036 0.44,0.362 0.825,0.786 1.143,1.256 12.293,13.378 28.89,27.011 49.721,34.569 24.563,8.913 41.955,9.596 55.024,5.531 12.703,-3.951 21.093,-12.371 28.061,-21.122 0.26,-0.326 0.516,-0.658 0.77,-0.994 0.262,-0.52 0.559,-0.933 0.78,-1.217 0.077,-0.1 0.233,-0.283 0.462,-0.505 11.658,-16.885 16.992,-45.577 15.474,-74.417 -0.02,-0.19 -0.03,-0.381 -0.031,-0.571 -0.185,-3.311 -0.459,-6.62 -0.825,-9.913 -5.082,-28.313 -30.799,-75.79 -121.014,-102.973 -2.277,-0.686 -4.549,-1.346 -6.816,-1.981 -0.512,0.591 -1.041,1.182 -1.585,1.771 -15.188,16.449 -5.268,37.165 -5.268,37.165 1.402,2.942 0.151,6.47 -2.791,7.872 -2.943,1.401 -6.47,0.151 -7.872,-2.792 0,0 -13.293,-28.005 7.254,-50.257 1.204,-1.305 2.316,-2.623 3.34,-3.955 0.051,-0.069 0.103,-0.138 0.157,-0.205 z M 414.797,472.86 c -2.852,-2.081 -8.302,-5.742 -13.85,-7.772 -1.802,-0.658 -3.607,-1.148 -5.309,-1.244 -1.327,-0.074 -2.6,0.052 -3.506,0.979 -0.085,0.429 -0.46,2.437 -0.463,4.02 -0.008,5.034 1.152,12.107 3.376,20.17 4.471,16.212 13.259,36.276 26.329,52.064 1.746,2.109 3.569,4.143 5.471,6.08 0.081,0.077 0.16,0.157 0.236,0.24 9.807,9.912 21.67,17.218 35.649,18.845 -1.233,-4.836 -2.487,-11.565 -2.864,-19.814 -25.29,-10.96 -37.006,-33.932 -42.38,-57.903 -1.172,-5.226 -2.038,-10.493 -2.689,-15.665 z m 263.328,92.07 c 1.495,-0.225 3.031,-0.683 4.57,-1.455 11.672,-5.855 32.27,-23.079 28.962,-54.405 -2.179,-20.628 0.937,-32.881 2.532,-40.629 0.266,-1.289 0.486,-2.426 0.603,-3.441 0.052,-0.45 0.047,-1.106 0.04,-1.408 -0.211,-0.068 -0.488,0.087 -0.778,0.153 -0.586,0.132 -1.192,0.387 -1.816,0.734 -3.02,1.68 -6.066,5.212 -8.523,10.44 -0.029,0.064 -0.058,0.127 -0.089,0.189 -1.386,2.989 -2.551,6.499 -3.383,10.537 -1.37,6.641 -1.596,13.248 -2.301,19.739 -0.943,8.67 -2.702,17.131 -7.951,25.302 -4.749,7.393 -12.398,14.63 -25.311,21.397 0.101,3.197 0.121,6.387 0.061,9.553 2.286,1.439 6.953,3.826 12.269,3.42 0.369,-0.078 0.742,-0.12 1.115,-0.126 z m 14.452,-93.976 c 0.716,-4.728 4.765,-27.884 17.13,-41.264 2.572,-2.784 3.912,-5.49 4.025,-8.066 0.166,-3.777 -2.405,-6.884 -5.886,-8.835 -6.371,-3.571 -15.927,-3.321 -23.355,3.777 -6.078,5.809 -10.091,12.188 -12.768,18.829 -0.124,0.519 -0.317,1.016 -0.572,1.478 -5.009,13.469 -4.811,27.917 -5.403,40.828 -0.334,7.295 -3.739,13.338 -7.836,17.905 -2.531,2.822 -5.304,5.053 -7.606,6.663 7.637,12.742 11.514,24.716 13.242,34.444 0.015,0.08 0.028,0.159 0.039,0.24 0.012,0.079 0.022,0.159 0.03,0.238 0.068,0.607 0.133,1.214 0.195,1.825 17.771,-10.785 21.046,-22.571 22.388,-34.909 0.745,-6.857 1.028,-13.832 2.475,-20.848 0.959,-4.652 2.305,-8.745 3.902,-12.305 z m -231.631,0.345 c -0.044,-0.04 -0.088,-0.082 -0.131,-0.125 -2.269,-2.223 -3.804,-5.235 -4.662,-9.001 -0.944,-4.149 -1.063,-9.421 -1.066,-15.381 -0.006,-12.565 0.591,-28.809 -9.834,-42.738 -9.014,-12.044 -17.336,-22.028 -24.962,-27.721 -5.315,-3.968 -9.963,-5.936 -14.129,-2.533 -1.233,1.007 -1.351,2.373 -1.119,3.914 0.308,2.045 1.153,4.288 2.235,6.728 3.068,6.915 7.837,15.003 11.49,23.789 0.366,0.583 0.633,1.234 0.778,1.926 2.146,5.484 3.789,11.221 4.269,17.099 0.754,9.243 0.474,24.207 2.239,40.41 0.373,0.951 0.493,1.986 0.349,2.997 0.626,5.046 1.466,10.182 2.608,15.278 4.238,18.906 12.691,37.401 31.026,47.436 0.808,-11.386 3.447,-24.65 9.396,-39.176 -4.523,-8.073 -7.17,-15.69 -8.487,-22.902 z m 198.959,-37.702 c -1.192,-7.385 -4.805,-38.305 12.357,-66.678 4.645,-7.68 3.842,-13.357 -1.306,-15.205 -3.759,-1.35 -8.768,-0.886 -14.019,1.328 -9.174,3.869 -18.746,13.062 -24.961,28.748 -8.72,22.012 -9.323,40.657 -10.571,55.424 -0.901,10.666 -2.27,19.514 -6.214,26.502 12.18,9.41 21.487,19.182 28.559,28.741 1.63,-1.157 3.582,-2.744 5.37,-4.737 2.434,-2.714 4.631,-6.226 4.829,-10.56 0.635,-13.843 0.88,-29.11 5.956,-43.563 z"
     inkscape:connector-curvature="0"
     sodipodi:nodetypes="ccccscccccccccccccccccscccccccccscccsccccccccccccccccccsscccccssccsscccccccssssccsssccccccccccccccccccccccccccccscccccccccccccccccccccccscccccccccccccccccccccccccccccccccccccccccccccccccccsccccccccccccccccccccccccccccccccccccscccccccccccccccccccccccc" /></svg>