<?xml version="1.0" encoding="UTF-8" standalone="no"?>
<svg
   xmlns:dc="http://purl.org/dc/elements/1.1/"
   xmlns:cc="http://creativecommons.org/ns#"
   xmlns:rdf="http://www.w3.org/1999/02/22-rdf-syntax-ns#"
   xmlns:svg="http://www.w3.org/2000/svg"
   xmlns="http://www.w3.org/2000/svg"
   xmlns:sodipodi="http://sodipodi.sourceforge.net/DTD/sodipodi-0.dtd"
   xmlns:inkscape="http://www.inkscape.org/namespaces/inkscape"
   width="100%"
   height="100%"
   viewBox="0 0 790 730"
   version="1.1"
   xml:space="preserve"
   style="fill-rule:evenodd;clip-rule:evenodd;stroke-linejoin:round;stroke-miterlimit:2;"
   id="svg2"
   inkscape:version="0.91 r13725"
   sodipodi:docname="axolotl-support.svg"><metadata
     id="metadata9"><rdf:RDF><cc:Work
         rdf:about=""><dc:format>image/svg+xml</dc:format><dc:type
           rdf:resource="http://purl.org/dc/dcmitype/StillImage" /><dc:title /></cc:Work></rdf:RDF></metadata><defs
     id="defs7" /><sodipodi:namedview
     pagecolor="#ffffff"
     bordercolor="#666666"
     borderopacity="1"
     objecttolerance="10"
     gridtolerance="10"
     guidetolerance="10"
     inkscape:pageopacity="0"
     inkscape:pageshadow="2"
     inkscape:window-width="1920"
     inkscape:window-height="1017"
     id="namedview5"
     showgrid="false"
     inkscape:object-paths="false"
     inkscape:zoom="1.2931507"
     inkscape:cx="303.34353"
     inkscape:cy="313.41946"
     inkscape:window-x="-8"
     inkscape:window-y="-8"
     inkscape:window-maximized="1"
     inkscape:current-layer="svg2" /><path
     id="Outer"
     d="M293.324,592.321C310.878,593.949 357.275,598.019 382.227,598.018C379.684,606.775 379.237,615.857 382.182,624.687C385.977,636.066 395.477,647.297 414.49,656.598C431.95,665.14 444.015,668.946 452.411,670.031C459.128,670.899 463.889,670.098 467.362,668.616C472.385,666.472 475.121,662.862 476.867,659.115C477.994,656.696 478.488,654.219 479.357,652.664C480.446,650.714 480.779,648.279 479.814,645.43C479.114,643.366 477.474,640.759 475.148,637.946C471.08,633.027 464.677,626.981 460.59,621.607C459.727,620.471 458.826,618.823 458.311,617.825C462.536,615.984 468.837,615.473 474.986,615.333C483.115,615.148 491.054,615.831 494.717,616.21C508.044,630.496 525.9,644.88 548.151,652.954C576.054,663.078 595.866,663.278 610.712,658.66C625.004,654.214 634.904,645.268 642.97,635.509C650.61,640.583 668.355,652.752 676.867,661.763C687.479,672.998 706.051,673.189 715.435,663.975C721.687,657.836 724.742,647.388 717.792,632.764C705.088,606.036 693.601,585.125 687.3,574.366C687.53,574.259 687.761,574.147 687.991,574.032C702.209,566.9 727.433,545.989 723.403,507.83C721.057,485.617 725.473,473.934 726.431,467.09C727.179,461.751 726.212,458.173 723.259,455.26C720.653,452.689 717.105,451.463 713.021,451.952C711.877,452.089 710.656,452.391 709.392,452.868C711.509,447.486 714.42,441.992 718.381,437.706C725.913,429.555 726.835,421.259 724.331,414.501C722.584,409.785 719.019,405.697 714.271,402.862C704.124,396.805 688.421,396.474 676.331,408.027C674.216,410.049 672.307,412.128 670.586,414.254C671.014,402.783 673.599,387.529 682.369,373.031C687.102,365.206 687.971,358.418 686.698,353.197C685.23,347.177 680.995,342.768 674.946,340.597C670.323,338.937 664.53,338.635 658.288,340.176C645.385,343.36 630.041,354.609 620.996,377.44C611.743,400.796 610.96,420.552 609.636,436.22C608.949,444.36 608.255,451.266 605.519,456.766C587.577,444.676 564.331,433.413 534.288,424.361C533.307,424.065 532.326,423.774 531.346,423.488C541.81,405.238 540.148,385.599 530.923,366.821C523.407,351.523 511.52,328.964 499.209,320.124C492.11,315.027 484.787,313.832 477.71,317.864C469.591,322.488 465.155,332.688 464.162,345.206C462.869,361.491 467.016,381.699 472.183,394.478C474.225,399.528 473.563,404.846 471.988,410.582C468.296,410.1 465.837,409.957 461.769,409.545C460.045,405.264 457.752,401.043 454.709,396.977C442.753,381.003 431.629,368.566 421.924,363.372C413.411,358.815 405.646,358.971 398.69,364.653C392.818,369.45 391.884,375.928 394.434,383.94C396.336,389.913 400.514,397.044 404.392,404.927C356.158,402.371 310.506,401.774 267.445,388.799C234.021,378.728 210.46,350.595 198.829,317.24C187.071,283.521 187.456,244.369 202.539,212.465C212.761,190.843 226.943,160.456 257.571,134.119C288.29,107.705 335.493,85.479 411.422,79.828C416.121,79.479 417.728,76.741 418.143,75.747C418.793,74.184 419.472,69.521 413.898,67.185C406.532,64.097 363.676,56.865 312.349,58.787C261.115,60.705 201.514,71.732 160.42,104.191C74.17,172.316 41.99,280.66 77.578,390.564C103.747,471.378 156.182,514.762 177.909,535.976C180.803,538.802 182.935,543.04 184.988,548.144C188.575,557.064 191.653,568.426 196.034,580.591C207.565,612.609 227.677,649.867 285.866,665.562C298.516,668.974 305.773,670.556 310.344,670.825C314.924,671.096 317.674,670.21 319.904,668.818C321.854,667.601 323.379,665.793 325.492,663.357C330.341,657.765 329.364,649.766 323.37,640.422C318.458,632.763 310.328,623.61 303.533,613.684C298.856,606.85 294.728,599.664 293.324,592.321ZM412.652,417.216C360.147,414.129 310.614,414.142 264.038,400.108C227,388.948 200.565,358.09 187.677,321.129C174.916,284.532 175.491,242.044 191.861,207.417C202.607,184.686 217.672,152.851 249.871,125.164C276.71,102.086 315.495,81.809 373.859,72.329C346.603,69.719 307.797,68.724 268.645,74.625C232.252,80.111 195.511,91.524 167.741,113.459C85.393,178.503 54.837,281.994 88.815,386.925C114.146,465.152 165.129,506.991 186.16,527.525C190.053,531.326 193.184,536.872 195.945,543.736C199.578,552.769 202.71,564.27 207.146,576.589C217.658,605.779 235.894,639.85 288.942,654.158C297.3,656.412 303.103,657.842 307.28,658.561C310.519,659.118 312.277,659.431 313.541,658.858C314.792,658.29 315.345,657.03 316.568,655.619C317.422,654.634 316.791,653.401 316.212,651.951C314.836,648.506 312.076,644.607 308.819,640.293C302.119,631.421 293.383,621.134 287.61,610.275C283.352,602.265 280.691,593.927 281.033,585.586C281.035,585.519 281.039,585.451 281.044,585.383L281.046,585.352C281.088,584.768 281.215,584.209 281.414,583.686C281.761,582.77 282.328,581.971 283.043,581.344L283.074,581.317L283.087,581.306C283.809,580.685 284.68,580.237 285.635,580.022C286.181,579.899 286.752,579.852 287.336,579.892L287.367,579.894C287.432,579.899 287.496,579.904 287.56,579.911C289.644,580.117 365.859,587.635 390.273,585.992C393.525,585.774 396.343,588.236 396.562,591.488C396.573,591.658 396.577,591.827 396.574,591.994C396.594,592.833 396.433,593.69 396.071,594.509C392.32,602.999 390.442,612.124 393.386,620.949C396.421,630.048 404.478,638.552 419.68,645.989C432.953,652.482 442.772,656.076 450.113,657.652C456.091,658.936 460.039,658.9 462.725,657.753C465.103,656.738 465.977,654.71 466.656,652.952C467.261,651.388 467.748,649.886 468.26,648.61C467.874,647.969 467.238,646.962 466.658,646.23C463.037,641.651 457.045,635.944 452.714,630.68C449.695,627.01 447.453,623.431 446.583,620.448C445.842,617.911 445.911,615.591 446.636,613.562C447.413,611.388 448.936,609.399 451.677,607.924C455.877,605.664 462.028,604.358 468.627,603.829C482.454,602.72 498.312,604.73 498.312,604.73C499.024,604.82 499.691,605.034 500.292,605.348C500.895,605.661 501.452,606.083 501.935,606.614C514.273,620.179 531.025,634.175 552.18,641.851C576.743,650.764 594.135,651.447 607.204,647.382C619.907,643.431 628.297,635.011 635.265,626.26C635.525,625.933 635.783,625.6 636.037,625.261C636.299,624.744 636.595,624.333 636.815,624.049C637.159,623.606 639.059,621.487 642.103,621.799C642.677,621.849 643.249,621.983 643.797,622.205C644.051,622.3 644.31,622.412 644.575,622.543C648.439,624.452 673.458,640.954 685.453,653.653C691.439,659.989 701.867,660.745 707.16,655.548C710.698,652.073 711.058,646.11 707.124,637.834C691.018,603.947 676.95,579.606 673.306,574.089C671.51,571.369 672.26,567.703 674.979,565.906C675.919,565.286 676.972,564.969 678.022,564.933C678.151,564.903 678.281,564.878 678.414,564.857C679.816,564.636 681.254,564.198 682.695,563.475C694.367,557.62 714.965,540.396 711.657,509.07C709.478,488.442 712.594,476.189 714.189,468.441C714.455,467.152 714.675,466.015 714.792,465C714.843,464.56 714.839,463.924 714.832,463.614C714.725,463.607 714.596,463.661 714.468,463.675C714.07,463.716 713.656,463.835 713.227,464.005C711.755,464.589 710.234,465.719 708.734,467.301C706.919,469.217 705.199,471.76 703.714,474.919C703.686,474.983 703.656,475.047 703.625,475.11C703.547,475.28 703.468,475.452 703.39,475.626C702.062,478.603 698.568,479.941 695.591,478.613C692.621,477.288 691.282,473.805 692.596,470.832C693.362,465.839 697.446,442.958 709.707,429.69C712.279,426.906 713.619,424.2 713.732,421.624C713.898,417.847 711.327,414.74 707.846,412.789C701.475,409.218 691.919,409.468 684.491,416.566C678.28,422.502 674.255,429.039 671.61,435.835C671.59,435.886 671.57,435.937 671.548,435.987C670.885,437.865 669.287,439.363 667.198,439.804C664.008,440.477 660.873,438.435 660.2,435.246C660.2,435.246 652.608,399.412 672.262,366.919C676.907,359.239 676.104,353.562 670.956,351.714C667.197,350.364 662.188,350.828 656.937,353.042C647.763,356.911 638.191,366.104 631.976,381.79C623.256,403.802 622.653,422.447 621.405,437.214C620.456,448.447 618.988,457.665 614.54,464.814C614.136,465.463 613.627,466.006 613.049,466.435C612.882,467.215 612.554,467.973 612.056,468.66C610.144,471.3 606.448,471.89 603.809,469.978C586.087,457.138 562.388,445.163 530.881,435.67C527.404,434.622 523.938,433.635 520.484,432.706C520.263,432.65 520.044,432.582 519.829,432.5C517.019,431.443 515.416,428.4 516.211,425.441C516.447,424.565 516.868,423.789 517.421,423.142C529.716,406.953 528.679,389.04 520.322,372.029C514.446,360.067 505.91,343.062 496.492,333.386C494.379,331.214 492.249,329.437 490.072,328.332C487.899,327.228 485.706,326.902 483.555,328.127C478.351,331.091 476.572,338.117 475.936,346.14C474.784,360.655 478.527,378.66 483.133,390.05C486.718,398.914 485.192,408.433 481.8,418.913C481.664,419.354 481.48,419.77 481.254,420.156L481.24,420.18C480.739,421.03 480.04,421.724 479.224,422.22C478.41,422.716 477.472,423.018 476.486,423.073L476.459,423.074C476.016,423.097 475.566,423.071 475.116,422.99C467.482,421.731 465.287,421.824 458.308,421.054C455.544,421.417 452.824,419.772 451.929,417.027C450.489,412.608 448.375,408.225 445.253,404.054C436.239,392.01 427.917,382.026 420.291,376.333C414.976,372.365 410.328,370.397 406.162,373.8C404.976,374.769 404.821,376.071 405.019,377.543C405.282,379.497 406.06,381.638 407.069,383.966C410.219,391.229 415.524,399.841 419.272,409.232C420.48,412.259 419.003,415.698 415.976,416.906C414.88,417.343 413.73,417.429 412.652,417.216Z" /><path
     style="fill:none;fill-rule:evenodd;stroke:#000000;stroke-width:20;stroke-linecap:butt;stroke-linejoin:miter;stroke-opacity:1;stroke-miterlimit:2;stroke-dasharray:none"
     d="m 69.444777,320.98667 124.125703,0"
     id="path3012"
     inkscape:connector-curvature="0" /><path
     style="fill:none;fill-rule:evenodd;stroke:#000000;stroke-width:20;stroke-linecap:butt;stroke-linejoin:miter;stroke-opacity:1;stroke-miterlimit:2;stroke-dasharray:none"
     d="m 354.87922,409.56977 -10.38938,177.1662"
     id="path3818"
     inkscape:connector-curvature="0" /><path
     style="fill:none;fill-rule:evenodd;stroke:#000000;stroke-width:20;stroke-linecap:butt;stroke-linejoin:miter;stroke-opacity:1;stroke-miterlimit:2;stroke-dasharray:none"
     d="m 171.42471,102.80977 54.68092,51.12666"
     id="path3822"
     inkscape:connector-curvature="0" /><path
     style="fill:none;fill-rule:evenodd;stroke:#000000;stroke-width:20;stroke-linecap:butt;stroke-linejoin:miter;stroke-opacity:1;stroke-miterlimit:2;stroke-dasharray:none"
     d="m 128.36864,474.03602 99.75636,-95.88983 0.7733,-2.31991"
     id="path3786"
     inkscape:connector-curvature="0" /><path
     style="fill:none;fill-rule:evenodd;stroke:#000000;stroke-width:20;stroke-linecap:butt;stroke-linejoin:miter;stroke-opacity:1;stroke-miterlimit:2;stroke-dasharray:none"
     d="M 525.84745,635.65678 C 584.61864,453.93009 584.61864,453.93009 584.61864,453.93009"
     id="path3788"
     inkscape:connector-curvature="0" /><path
     style="fill:none;fill-rule:evenodd;stroke:#000000;stroke-width:20;stroke-linecap:butt;stroke-linejoin:miter;stroke-opacity:1;stroke-miterlimit:2;stroke-dasharray:none"
     d="m 655.7627,634.88348 c 35.57204,-34.02543 35.57204,-34.02543 35.57204,-34.02543"
     id="path3790"
     inkscape:connector-curvature="0" /></svg>