<?xml version="1.0" encoding="UTF-8" standalone="no"?>
<!DOCTYPE svg PUBLIC "-//W3C//DTD SVG 1.1//EN" "http://www.w3.org/Graphics/SVG/1.1/DTD/svg11.dtd">
<svg width="100%" height="100%" viewBox="0 0 664 613" version="1.1" xmlns="http://www.w3.org/2000/svg" xmlns:xlink="http://www.w3.org/1999/xlink" xml:space="preserve" xmlns:serif="http://www.serif.com/" style="fill-rule:evenodd;clip-rule:evenodd;stroke-linejoin:round;stroke-miterlimit:2;">
    <g transform="matrix(1,0,0,1,-1422.24,-933.957)">
        <path d="M1652.26,1467.83C1670.19,1469.52 1718.03,1473.78 1741.19,1473.26C1738.14,1483.77 1738.07,1494.81 1743.29,1505.31C1748.04,1514.89 1757.31,1524.2 1773.43,1532.09C1790.89,1540.63 1802.95,1544.44 1811.35,1545.52C1818.07,1546.39 1822.83,1545.59 1826.3,1544.11C1831.32,1541.96 1834.06,1538.35 1835.8,1534.61C1836.93,1532.19 1837.42,1529.71 1838.29,1528.15C1839.38,1526.2 1839.72,1523.77 1838.75,1520.92C1838.05,1518.86 1836.41,1516.25 1834.09,1513.44C1830.02,1508.52 1823.61,1502.47 1819.53,1497.1C1818.66,1495.96 1817.76,1494.31 1817.25,1493.32C1821.47,1491.47 1827.77,1490.96 1833.92,1490.82C1842.12,1490.64 1850.13,1491.33 1853.75,1491.71C1867.05,1505.96 1884.86,1520.38 1907.09,1528.44C1934.99,1538.57 1954.8,1538.77 1969.65,1534.15C1983.94,1529.7 1993.84,1520.76 2001.91,1511C2009.55,1516.07 2027.29,1528.24 2035.8,1537.25C2046.42,1548.49 2064.99,1548.68 2074.37,1539.47C2080.62,1533.33 2083.68,1522.88 2076.73,1508.25C2064.03,1481.53 2052.54,1460.62 2046.24,1449.86C2046.47,1449.75 2046.7,1449.64 2046.93,1449.52C2061.15,1442.39 2086.37,1421.48 2082.34,1383.32C2079.99,1361.11 2084.41,1349.42 2085.37,1342.58C2086.12,1337.24 2085.15,1333.66 2082.2,1330.75C2079.1,1327.69 2074.62,1326.49 2069.54,1327.93C2069.15,1328.04 2068.75,1328.17 2068.34,1328.32C2070.46,1322.95 2073.37,1317.47 2077.32,1313.2C2084.85,1305.05 2085.77,1296.75 2083.27,1289.99C2081.52,1285.28 2077.96,1281.19 2073.21,1278.35C2063.06,1272.3 2047.36,1271.96 2035.27,1283.52C2033.15,1285.54 2031.24,1287.62 2029.52,1289.75C2029.95,1278.28 2032.54,1263.02 2041.31,1248.52C2046.04,1240.7 2046.91,1233.91 2045.63,1228.69C2044.17,1222.67 2039.93,1218.26 2033.88,1216.09C2029.26,1214.43 2023.47,1214.12 2017.23,1215.67C2004.32,1218.85 1988.98,1230.1 1979.93,1252.93C1970.68,1276.29 1969.9,1296.04 1968.57,1311.71C1967.89,1319.84 1967.19,1326.74 1964.46,1332.24C1946.47,1320.12 1923.21,1308.88 1893.23,1299.85C1892.25,1299.56 1891.28,1299.27 1890.31,1298.98C1900.8,1280.74 1899.09,1261.09 1889.86,1242.31C1882.34,1227.01 1870.46,1204.45 1858.15,1195.61C1851.05,1190.52 1843.72,1189.32 1836.65,1193.35C1828.53,1197.98 1824.09,1208.18 1823.1,1220.7C1821.81,1236.98 1825.95,1257.19 1831.12,1269.97C1832.69,1273.86 1832.59,1277.94 1831.77,1282.26C1831.54,1283.52 1831.24,1284.78 1830.9,1286.07C1827.22,1285.59 1824.76,1285.45 1820.68,1285.03C1818.97,1280.76 1816.69,1276.53 1813.65,1272.47C1801.69,1256.49 1790.57,1244.06 1780.86,1238.86C1772.35,1234.31 1764.58,1234.46 1757.63,1240.14C1750.62,1245.86 1750.79,1254.28 1755.42,1264.72C1757.51,1269.44 1760.56,1274.72 1763.41,1280.42C1715.15,1277.86 1669.47,1277.27 1626.38,1264.29C1592.96,1254.22 1569.4,1226.09 1557.77,1192.73C1546.01,1159.01 1546.39,1119.86 1561.48,1087.95C1571.7,1066.33 1585.88,1035.95 1616.51,1009.61C1647.23,983.195 1694.43,960.969 1770.36,955.318C1775.06,954.969 1776.66,952.231 1777.08,951.237C1777.73,949.674 1778.41,945.011 1772.84,942.675C1765.47,939.587 1722.61,932.355 1671.29,934.277C1620.05,936.195 1560.45,947.222 1519.36,979.681C1433.11,1047.81 1400.93,1156.15 1436.52,1266.05C1462.68,1346.87 1515.12,1390.25 1536.85,1411.47C1539.74,1414.29 1541.87,1418.53 1543.92,1423.63C1547.51,1432.55 1550.59,1443.92 1554.97,1456.08C1566.5,1488.1 1586.61,1525.36 1644.8,1541.05C1657.45,1544.46 1664.71,1546.05 1669.28,1546.32C1673.86,1546.59 1676.61,1545.7 1678.84,1544.31C1680.79,1543.09 1682.32,1541.28 1684.43,1538.85C1689.28,1533.26 1688.3,1525.26 1682.31,1515.91C1677.39,1508.25 1669.27,1499.1 1662.47,1489.17C1657.8,1482.35 1653.67,1475.16 1652.26,1467.83ZM1768.59,1292.53C1717.19,1289.62 1668.66,1289.36 1622.98,1275.6C1585.94,1264.44 1559.5,1233.58 1546.61,1196.62C1533.85,1160.02 1534.43,1117.53 1550.8,1082.91C1561.54,1060.18 1576.61,1028.34 1608.81,1000.65C1635.65,977.576 1674.43,957.299 1732.8,947.819C1705.54,945.209 1666.73,944.214 1627.58,950.115C1591.19,955.601 1554.45,967.015 1526.68,988.949C1444.33,1053.99 1413.77,1157.48 1447.75,1262.41C1473.08,1340.64 1524.07,1382.48 1545.1,1403.02C1548.99,1406.82 1552.12,1412.36 1554.88,1419.23C1558.52,1428.26 1561.65,1439.76 1566.08,1452.08C1576.6,1481.27 1594.83,1515.34 1647.88,1529.65C1656.24,1531.9 1662.04,1533.33 1666.22,1534.05C1669.46,1534.61 1671.21,1534.92 1672.48,1534.35C1673.73,1533.78 1674.28,1532.52 1675.51,1531.11C1676.36,1530.12 1675.73,1528.89 1675.15,1527.44C1673.77,1524 1671.01,1520.1 1667.76,1515.78C1661.06,1506.91 1652.32,1496.62 1646.55,1485.77C1642.29,1477.75 1639.63,1469.42 1639.97,1461.08C1639.97,1461 1639.98,1460.93 1639.98,1460.85C1640.02,1460.27 1640.15,1459.72 1640.34,1459.2L1640.36,1459.16L1640.37,1459.14C1640.71,1458.24 1641.28,1457.45 1641.98,1456.83L1642.01,1456.81L1642.03,1456.79C1642.75,1456.18 1643.61,1455.73 1644.55,1455.52L1644.59,1455.51L1644.61,1455.5C1645.15,1455.38 1645.72,1455.34 1646.3,1455.38C1646.37,1455.39 1646.44,1455.39 1646.51,1455.4C1648.56,1455.61 1720.8,1462.91 1745.19,1461.27C1745.45,1461.25 1745.71,1461.25 1745.97,1461.27C1746.5,1460.21 1747.06,1459.17 1747.63,1458.14C1755.43,1444.16 1766.9,1432.44 1773.27,1426.5C1757.97,1409.02 1747.68,1386.07 1742.6,1367.64C1739.56,1356.64 1738.4,1347.18 1738.92,1341.28C1739.27,1337.41 1740.43,1334.63 1741.78,1333C1745.91,1327.99 1751.96,1326.68 1758.61,1327.97C1763.22,1328.87 1768.13,1331.13 1772.35,1333.51C1771.58,1321.53 1771.57,1310.92 1770.98,1303.71C1770.67,1299.89 1769.79,1296.16 1768.59,1292.53ZM2023.01,1449.79C2021.28,1469.6 2016.39,1487.87 2008.76,1501.21C2017.74,1507.01 2035.03,1519.23 2044.39,1529.14C2050.38,1535.48 2060.8,1536.24 2066.1,1531.04C2069.64,1527.56 2069.99,1521.6 2066.06,1513.32C2051.83,1483.38 2039.19,1460.89 2033.92,1452.25C2029.83,1452.07 2026.08,1451.02 2023.01,1449.79ZM1781.54,1434.93C1777.18,1438.95 1769.9,1446.22 1763.48,1455.22C1755.12,1466.91 1747.82,1481.6 1752.13,1495.71C1755,1505.09 1763.07,1513.87 1778.62,1521.48C1791.89,1527.97 1801.71,1531.57 1809.05,1533.14C1815.03,1534.43 1818.98,1534.39 1821.66,1533.24C1824.04,1532.23 1824.91,1530.2 1825.59,1528.44C1826.2,1526.88 1826.68,1525.38 1827.2,1524.1C1826.81,1523.46 1826.17,1522.45 1825.6,1521.72C1821.97,1517.14 1815.98,1511.43 1811.65,1506.17C1808.63,1502.5 1806.39,1498.92 1805.52,1495.94C1804.78,1493.4 1804.85,1491.08 1805.57,1489.05C1806.35,1486.88 1807.87,1484.89 1810.61,1483.41C1814.81,1481.15 1820.97,1479.85 1827.56,1479.32C1832.74,1478.9 1838.2,1478.93 1843.01,1479.12C1834.52,1468.24 1828.94,1458.71 1826.3,1453.87C1808.87,1453.53 1793.91,1446.1 1781.54,1434.93ZM1876.24,1298.78C1888.59,1282.55 1887.64,1264.58 1879.26,1247.52C1873.38,1235.56 1864.85,1218.55 1855.43,1208.88C1853.32,1206.7 1851.19,1204.93 1849.01,1203.82C1846.84,1202.72 1844.64,1202.39 1842.49,1203.62C1837.29,1206.58 1835.51,1213.61 1834.87,1221.63C1833.72,1236.14 1837.46,1254.15 1842.07,1265.54C1845.56,1274.16 1844.06,1283.44 1840.91,1293.65C1840.82,1294.2 1840.66,1294.71 1840.43,1295.19C1839.64,1297.67 1838.76,1300.2 1837.85,1302.79C1831.77,1319.99 1824.46,1340.46 1840.01,1366.22C1840.52,1367.05 1840.79,1367.96 1840.85,1368.88C1840.91,1369.79 1840.76,1370.73 1840.37,1371.62C1822.23,1413.42 1834.62,1444 1835.24,1445.48C1835.92,1446.89 1844.31,1463.81 1860.25,1481.52C1860.69,1481.88 1861.08,1482.3 1861.4,1482.77C1873.69,1496.15 1890.29,1509.78 1911.12,1517.34C1935.68,1526.25 1953.07,1526.94 1966.14,1522.87C1978.84,1518.92 1987.23,1510.5 1994.2,1501.75C1994.46,1501.42 1994.72,1501.09 1994.97,1500.76C1995.23,1500.24 1995.53,1499.82 1995.75,1499.54C1995.83,1499.44 1995.99,1499.26 1996.21,1499.03C2007.87,1482.15 2013.21,1453.46 2011.69,1424.62C2011.67,1424.43 2011.66,1424.24 2011.66,1424.05C2011.47,1420.74 2011.2,1417.43 2010.83,1414.13C2005.75,1385.82 1980.03,1338.34 1889.82,1311.16C1887.54,1310.47 1885.27,1309.81 1883,1309.18C1882.49,1309.77 1881.96,1310.36 1881.42,1310.95C1866.23,1327.4 1876.15,1348.12 1876.15,1348.12C1877.55,1351.06 1876.3,1354.59 1873.36,1355.99C1870.41,1357.39 1866.89,1356.14 1865.49,1353.19C1865.49,1353.19 1852.19,1325.19 1872.74,1302.94C1873.94,1301.63 1875.06,1300.32 1876.08,1298.98C1876.13,1298.91 1876.18,1298.85 1876.24,1298.78ZM1877.42,1459.82C1873.18,1460.33 1869.32,1465.85 1869.95,1471.62C1870.57,1477.4 1875.68,1483.43 1889.37,1484.98C1915.37,1487.91 1889.58,1458.35 1877.42,1459.82ZM1993.18,1449.94C1987.67,1449 1983.28,1454.64 1981.87,1460.84C1980.46,1467.05 1982.04,1473.83 1988.48,1475.17C2001.36,1477.85 2004.18,1451.82 1993.18,1449.94ZM1773.73,1348.35C1770.88,1346.27 1765.43,1342.61 1759.88,1340.58C1758.08,1339.92 1756.28,1339.43 1754.58,1339.33C1753.25,1339.26 1751.98,1339.39 1751.07,1340.31C1750.98,1340.74 1750.61,1342.75 1750.61,1344.33C1750.6,1349.37 1751.76,1356.44 1753.98,1364.5C1758.45,1380.71 1767.24,1400.78 1780.31,1416.57C1782.06,1418.68 1783.88,1420.71 1785.78,1422.65C1785.86,1422.72 1785.94,1422.8 1786.02,1422.89C1795.83,1432.8 1807.69,1440.11 1821.67,1441.73C1820.43,1436.9 1819.18,1430.17 1818.8,1421.92C1793.51,1410.96 1781.8,1387.99 1776.42,1364.02C1775.25,1358.79 1774.38,1353.52 1773.73,1348.35ZM2037.06,1440.42C2038.56,1440.19 2040.09,1439.74 2041.63,1438.96C2053.3,1433.11 2073.9,1415.89 2070.59,1384.56C2068.41,1363.93 2071.53,1351.68 2073.13,1343.93C2073.39,1342.64 2073.61,1341.51 2073.73,1340.49C2073.78,1340.04 2073.78,1339.38 2073.77,1339.08C2073.56,1339.01 2073.28,1339.17 2072.99,1339.24C2072.41,1339.37 2071.8,1339.62 2071.18,1339.97C2068.16,1341.65 2065.11,1345.18 2062.65,1350.41C2062.62,1350.47 2062.59,1350.54 2062.56,1350.6C2061.18,1353.59 2060.01,1357.1 2059.18,1361.13C2057.81,1367.78 2057.58,1374.38 2056.88,1380.87C2055.94,1389.54 2054.18,1398.01 2048.93,1406.18C2044.18,1413.57 2036.53,1420.81 2023.62,1427.57C2023.72,1430.77 2023.74,1433.96 2023.68,1437.13C2025.96,1438.57 2030.63,1440.95 2035.95,1440.55C2036.32,1440.47 2036.69,1440.43 2037.06,1440.42ZM2051.51,1346.44C2052.23,1341.72 2056.28,1318.56 2068.64,1305.18C2071.22,1302.4 2072.56,1299.69 2072.67,1297.11C2072.84,1293.34 2070.26,1290.23 2066.78,1288.28C2060.41,1284.71 2050.86,1284.96 2043.43,1292.06C2037.35,1297.87 2033.34,1304.24 2030.66,1310.88C2030.54,1311.4 2030.34,1311.9 2030.09,1312.36C2025.08,1325.83 2025.28,1340.28 2024.68,1353.19C2024.35,1360.49 2020.95,1366.53 2016.85,1371.1C2014.32,1373.92 2011.55,1376.15 2009.24,1377.76C2016.88,1390.5 2020.76,1402.48 2022.49,1412.2C2022.5,1412.28 2022.51,1412.36 2022.52,1412.44C2022.54,1412.52 2022.55,1412.6 2022.55,1412.68C2022.62,1413.29 2022.69,1413.89 2022.75,1414.51C2040.52,1403.72 2043.8,1391.93 2045.14,1379.6C2045.88,1372.74 2046.16,1365.77 2047.61,1358.75C2048.57,1354.1 2049.92,1350 2051.51,1346.44ZM1819.88,1346.79C1819.84,1346.75 1819.8,1346.71 1819.75,1346.66C1817.48,1344.44 1815.95,1341.43 1815.09,1337.66C1814.15,1333.51 1814.03,1328.24 1814.02,1322.28C1814.02,1309.72 1814.62,1293.47 1804.19,1279.54C1795.18,1267.5 1786.85,1257.52 1779.23,1251.82C1773.91,1247.86 1769.27,1245.89 1765.1,1249.29C1763.87,1250.3 1763.75,1251.66 1763.98,1253.2C1764.29,1255.25 1765.13,1257.49 1766.22,1259.93C1769.28,1266.85 1774.05,1274.93 1777.7,1283.72C1778.07,1284.3 1778.34,1284.95 1778.48,1285.65C1780.63,1291.13 1782.27,1296.87 1782.75,1302.75C1783.51,1311.99 1783.23,1326.95 1784.99,1343.16C1785.36,1344.11 1785.48,1345.14 1785.34,1346.15C1785.97,1351.2 1786.81,1356.34 1787.95,1361.43C1792.19,1380.34 1800.64,1398.83 1818.97,1408.87C1819.78,1397.48 1822.42,1384.22 1828.37,1369.69C1823.85,1361.62 1821.2,1354 1819.88,1346.79ZM2018.84,1309.09C2017.65,1301.7 2014.04,1270.78 2031.2,1242.41C2035.84,1234.73 2035.04,1229.05 2029.89,1227.2C2026.13,1225.85 2021.12,1226.32 2015.87,1228.53C2006.7,1232.4 1997.13,1241.59 1990.91,1257.28C1982.19,1279.29 1981.59,1297.94 1980.34,1312.7C1979.44,1323.37 1978.07,1332.22 1974.13,1339.21C1986.31,1348.62 1995.62,1358.39 2002.69,1367.95C2004.32,1366.79 2006.27,1365.2 2008.06,1363.21C2010.49,1360.5 2012.69,1356.98 2012.89,1352.65C2013.52,1338.81 2013.77,1323.54 2018.84,1309.09ZM1824.17,1297.21C1824.57,1299.32 1824.87,1301.41 1825.1,1303.48C1825.63,1301.91 1826.17,1300.37 1826.71,1298.85C1826.87,1298.4 1827.03,1297.96 1827.18,1297.51C1826.14,1297.4 1825.17,1297.3 1824.17,1297.21Z"/>
    </g>
</svg>
