<?xml version="1.0" encoding="UTF-8" standalone="no"?>
<svg
   xmlns:dc="http://purl.org/dc/elements/1.1/"
   xmlns:cc="http://creativecommons.org/ns#"
   xmlns:rdf="http://www.w3.org/1999/02/22-rdf-syntax-ns#"
   xmlns:svg="http://www.w3.org/2000/svg"
   xmlns="http://www.w3.org/2000/svg"
   xmlns:sodipodi="http://sodipodi.sourceforge.net/DTD/sodipodi-0.dtd"
   xmlns:inkscape="http://www.inkscape.org/namespaces/inkscape"
   width="100%"
   height="100%"
   viewBox="0 0 2820 2819"
   version="1.1"
   xml:space="preserve"
   style="fill-rule:evenodd;clip-rule:evenodd;stroke-linejoin:round;stroke-miterlimit:2;"
   id="svg2"
   inkscape:version="0.91 r13725"
   sodipodi:docname="mew-support.svg"><metadata
     id="metadata16"><rdf:RDF><cc:Work
         rdf:about=""><dc:format>image/svg+xml</dc:format><dc:type
           rdf:resource="http://purl.org/dc/dcmitype/StillImage" /><dc:title /></cc:Work></rdf:RDF></metadata><defs
     id="defs14" /><sodipodi:namedview
     pagecolor="#ffffff"
     bordercolor="#666666"
     borderopacity="1"
     objecttolerance="10"
     gridtolerance="10"
     guidetolerance="10"
     inkscape:pageopacity="0"
     inkscape:pageshadow="2"
     inkscape:window-width="1920"
     inkscape:window-height="1017"
     id="namedview12"
     showgrid="false"
     inkscape:zoom="1.8943138"
     inkscape:cx="581.93918"
     inkscape:cy="2042.1074"
     inkscape:window-x="-8"
     inkscape:window-y="-8"
     inkscape:window-maximized="1"
     inkscape:current-layer="g4" /><g
     transform="matrix(0.21151648,0,0,0.21151648,122.24936,335.63684)"
     id="g4"><path
       d="m 1896.87,1627.49 c -23.43,19.74 -43.19,37.96 -53.98,51.01 -13.05,15.79 -17.66,30.2 -18.5,38.91 -1.25,12.97 2.16,23.64 7.99,32.4 2.19,3.31 4.81,6.47 7.96,9.32 -2.84,17.79 1.84,34.13 19.45,48.8 9,7.5 21.22,12.42 33.72,15.28 0.88,2.22 1.75,4.08 2.57,5.59 7.63,13.95 18.38,20.59 30.33,23.56 8.3,2.06 19.23,3.05 33.13,-3.72 3.25,-1.59 7.82,-4.28 13.76,-9.05 84.86,-68.25 190.61,-98.18 249.07,-110.34 1.86,22.13 2.33,48.7 1.04,81.45 -2.4,60.85 -5,108.23 -6.9,147.02 -50.2,111.31 -68.22,212.54 -54.08,295.62 -7.05,29.16 -19.43,114.46 16.39,295.67 29.48,149.19 73.72,295.93 134.16,385.72 49.9,74.14 112.09,111.94 182.3,102.73 56.6,-7.43 89.7,-41.5 105.86,-87.71 12.89,-36.85 13.57,-82.92 6.08,-125.87 -11.29,-64.71 -41.22,-118.07 -55.72,-144.92 -16.85,-31.21 -52.53,-92.81 -76.39,-150.68 -5.7,-13.82 -10.87,-27.31 -14.66,-39.86 18.09,-2.2 36.22,-6.95 54.12,-14.73 111.17,35.57 220.26,20.57 309.36,-28.34 58.17,-31.93 83.13,-37.88 91.25,-38.31 14.39,1.99 28.39,1.93 42.17,1.28 16.42,31.77 43.47,94.63 51.92,173.51 13.59,126.86 58.03,359.64 65.13,474.21 3.76,60.66 27.94,120.52 73.89,168.4 48.87,50.91 116.54,81.11 187.96,65.46 11.16,-2.45 21.61,-5.51 31.37,-9.15 5.51,-0.87 10.82,-3.05 15.43,-6.45 96.89,-45.32 122.44,-153.41 83.11,-297.63 -18.33,-67.2 -85.64,-229.87 -160.2,-390.42 -52.26,-112.51 -88.1,-227.29 -123.13,-294.17 -12.86,-24.56 -27.68,-44.73 -42.07,-58.59 0.72,-28.25 -0.46,-59 -8.25,-107.03 6.75,-13.78 20.72,-35.25 65.13,-66.76 97.29,-69.02 261.73,-164.55 402.95,-286.48 146.92,-126.86 220.88,-226.09 254.61,-301.41 31.47,-70.27 29.18,-126.01 12.87,-169.17 -24.61,-65.13 -83.59,-102.75 -121.34,-118.72 -78.42,-33.17 -205.04,-55.72 -397.09,-48.1 -354.94,14.07 -527.23,58.4 -716.52,109.41 -0.76,0.2 -1.52,0.41 -2.28,0.62 11.38,-16.23 22.48,-33.79 33.1,-52.78 37.85,-67.68 46.4,-126.9 39.13,-178.43 -4.36,-30.842 -20.2,-64.528 -38.65,-93.923 -20.52,-32.692 -49.04,-66.514 -53.49,-71.735 l -0.19,-0.337 c -0.94,-34.604 -18.3,-219.732 -65.58,-292.378 -3.84,-5.896 -11.59,-15.455 -27.92,-20.142 -5.06,-1.452 -14.39,-3.031 -27.27,-3.262 -44.86,-0.803 -156.63,12.575 -244.8,65.743 -0.27,0.005 -0.55,0.009 -0.82,0.011 -36.86,0.28 -126.79,-3.091 -224.52,28.588 -18.23,5.91 -35.11,11.853 -50.88,17.912 19.85,-22.345 39.58,-46.21 57.75,-70.813 54.27,-73.483 99.53,-146.886 119.33,-205.039 18.35,-53.879 14.71,-98.39 -6.35,-127.878 -10.85,-15.188 -27.59,-25.599 -51.56,-27.318 -16.79,-1.204 -40.16,2.852 -67.8,13.19 -135.43,50.641 -291.63,172.811 -468.93,297.981 -148.43,104.789 -369.56,307.242 -602.848,710.67 -49.276,85.21 -84.915,167.63 -98.682,240.2 -10.314,54.37 -4.374,103.81 10.749,146.32 15.928,44.79 60.936,92.22 129.063,117.82 97.578,36.65 145.878,51.03 292.978,45.83 266.92,-9.43 419.46,-88.47 614.22,-158.59 z m 936.33,-396.37 6.06,-0.8 c 130.18,-28.14 282.43,-50.01 511.79,-59.1 184.63,-7.32 306.48,13.44 381.88,45.33 52.57,22.25 156.08,93.06 89.93,240.78 -32.42,72.39 -104.22,167.14 -245.43,289.07 -140.25,121.11 -303.66,215.85 -400.29,284.4 -68.05,48.28 -74.48,76.74 -81.37,90.81 10.68,61.55 10.51,94.34 8.92,128.2 15.41,9.33 32.17,30.87 46.75,58.71 34.85,66.53 70.4,180.74 122.38,292.66 73.51,158.28 140.09,318.57 158.15,384.81 34.27,125.65 18.06,221.2 -68.89,258.45 l -1.04,1.33 -0.74,-0.58 c -9.97,4.13 -20.83,7.51 -32.63,10.1 -59,12.93 -114.45,-13.33 -154.82,-55.39 -39.85,-41.52 -60.82,-93.44 -64.08,-146.05 -7.13,-114.96 -51.63,-348.51 -65.27,-475.8 -11.47,-107.07 -54.97,-186.66 -67.06,-206.44 -19.36,1.22 -39.07,3.23 -59.65,0 -7.56,-0.26 -37.44,2.35 -110.91,42.68 -84.58,46.43 -188.96,59.1 -294.62,21.2 -30.79,16.37 -62.66,21.1 -93.57,18.09 0.08,23.82 10.11,55.34 23.66,88.2 24.38,59.14 60.76,122.13 77.97,154.02 13.44,24.88 41.53,74.2 51.99,134.17 6.43,36.87 6.45,76.44 -4.61,108.08 -11.8,33.72 -35.73,58.85 -77.03,64.27 -57.75,7.59 -107.25,-26.39 -148.3,-87.38 -58.37,-86.72 -100.32,-228.71 -128.79,-372.8 -38.61,-195.37 -19.59,-272.36 -14.84,-287.26 -16.02,-80.21 2.44,-179.19 52.84,-288.66 1.92,-40.1 4.69,-89.54 7.24,-154.13 2.19,-55.57 -0.59,-94.48 -6.25,-124.22 -38.25,5.6 -187.53,32.47 -301.48,124.1 -3.09,2.49 -5.39,4 -7.08,4.82 -3.81,1.86 -6.79,1.75 -9.07,1.18 -3.09,-0.77 -5.8,-2.57 -7.77,-6.17 -0.78,-1.42 -1.49,-3.56 -2.32,-6.33 -1.01,-3.35 -2.66,-8.31 -7.76,-13.58 -0.32,-0.1 -1.32,-0.42 -1.98,-0.59 -2.55,-0.65 -5.56,-1.09 -8.69,-1.62 -8.62,-1.47 -17.74,-3.8 -23.95,-8.97 -7.32,-6.1 -8.22,-13.06 -6.11,-20.64 0.83,-3.01 2.32,-6.19 3.87,-9.4 0.94,-1.94 1.92,-3.9 2.48,-5.88 0.17,-0.63 0.43,-1.24 0.24,-1.86 -0.21,-0.73 -0.94,-1.25 -1.87,-1.93 -2.49,-1.82 -6.18,-3.45 -11.34,-5.08 -3.75,-1.17 -6.23,-3.27 -7.86,-5.73 -1.68,-2.53 -2.58,-5.63 -2.22,-9.37 0.44,-4.53 3.76,-11.54 10.54,-19.74 29.25,-35.38 127.58,-109.99 179.78,-145.58 -7.86,-2.1 -15.37,-4.59 -22.53,-7.39 -268.94,75.33 -422.37,191.12 -746.05,202.56 -140.21,4.96 -186.26,-8.65 -279.27,-43.59 -56.505,-21.23 -94.925,-59.37 -108.137,-96.52 -13.212,-37.15 -18.332,-80.35 -9.321,-127.85 13.138,-69.25 47.52,-147.75 94.544,-229.06 229.494,-396.863 446.604,-596.381 592.614,-699.464 174.41,-123.131 327.68,-243.922 460.9,-293.738 21.61,-8.082 39.73,-11.978 52.86,-11.037 11.59,0.831 20.01,5.227 25.25,12.571 15.78,22.081 15.39,55.515 1.65,95.86 -18.9,55.493 -62.51,125.292 -114.29,195.414 -64.47,87.309 -149.3,164.993 -186.07,197.038 14.46,2.422 23.27,4.692 24.21,4.94 l 2.75,0.657 c 50.56,-38.304 105.16,-66.934 191.67,-94.979 93.06,-30.169 178.76,-26.596 213.86,-26.863 4.87,-0.036 9.62,-0.461 11.74,-0.679 82.29,-52.801 190.37,-65.842 232.97,-65.079 8.55,0.153 14.77,0.929 18.13,1.893 4.59,1.314 6.92,3.759 8,5.413 46.36,71.23 60.76,259.21 59.91,275.595 -0.32,6.149 2.08,10.906 6.07,17.587 3.14,5.26 77.24,84.916 86.54,150.821 6.37,45.14 -1.81,96.88 -34.97,156.17 -34.76,62.17 -74.91,108.02 -113.13,141.57 40.13,-11.95 83.92,-27.51 122.46,-37.9 60.87,-16.4 119.96,-32.1 184.07,-46.31 l 6.79,-2.01 z m 193.65,718.12 c 19.18,11.42 118.61,-8.14 285.16,-124.97 187.37,-131.44 253.89,-195.27 355.79,-307.69 33.37,-36.82 106.11,-128.53 71.94,-180.77 -24.64,-37.67 -67.96,-71.24 -252.48,-77.29 -330.85,-10.85 -657.83,64.62 -747.71,87.86 -29.7,7.68 -83.87,20.69 -162.18,45.52 2.21,0.03 6.51,0.01 8.84,0 34.01,-0.1 69.71,-3.99 137.35,-0.87 91.02,4.2 180.18,26.99 215.3,38.62 10.76,3.56 17.17,6.76 18.65,8.05 3.11,2.69 4.41,5.6 4.86,8.41 0.45,2.77 0.05,5.7 -1.47,8.7 -1.16,2.3 -3.33,4.91 -5.96,7.75 -1.78,1.93 -3.97,4.07 -5.28,6.79 0.18,0.56 0.43,1.15 0.71,1.79 2.14,4.66 6.18,10.27 10.23,16.01 4.77,6.76 9.6,13.65 12.5,19.53 2.93,5.94 3.97,11.36 3.32,15.5 -1.03,6.59 -6.41,12.69 -15.29,16.76 -7.71,3.54 -18.34,5.98 -26.78,8.14 -2.98,0.76 -5.62,1.27 -7.27,1.97 -0.38,0.99 -0.71,2.16 -1.03,3.46 -1.62,6.44 -2.88,15.07 -4.96,22.28 -1.52,5.26 -3.53,9.87 -5.99,13.16 -4.11,5.49 -9.44,8.21 -16.01,7.67 -6.31,-0.51 -14.52,-4.87 -23.24,-10.8 -9.2,-6.25 -19.4,-14.57 -29.13,-15.94 -73.94,-10.42 -155.23,-9.84 -214.85,-5.41 64.93,134.74 180.83,199.6 254.51,253.19 46.44,33.77 97.87,72.28 140.47,132.58 z m 19.45,-33.35 c -43.11,-56.64 -93.26,-94.57 -139.08,-127.89 -60.75,-44.18 -152.49,-95.57 -216.13,-191.86 46.81,-1.01 99.63,0.75 149.14,7.62 1.88,1.22 11.06,7.21 15.7,10.36 14.86,10.11 29.54,15.95 40.29,16.82 19.26,1.56 35.23,-5.68 47.26,-21.77 4.62,-6.18 8.8,-14.67 11.65,-24.56 0.63,-2.18 1.2,-4.49 1.71,-6.83 6.74,-1.9 13.51,-4.09 19.07,-6.64 21.98,-10.08 32.97,-27.18 35.52,-43.49 1.52,-9.73 0.33,-22.69 -6.55,-36.65 -3,-6.07 -7.55,-13.08 -12.42,-20.09 l 0.07,-0.13 c 5.28,-10.46 6.38,-20.67 4.82,-30.34 -1.59,-9.8 -5.8,-20.13 -16.63,-29.52 -2.49,-2.16 -12.64,-8.92 -30.72,-14.91 -24.9,-8.24 -75.8,-21.88 -135.66,-31.16 134.62,-30.35 401.88,-79.76 671.76,-70.91 162.28,5.32 202.32,28.13 223.99,61.26 7.78,11.9 2.25,27.2 -4.12,42.85 -15.14,37.23 -46.35,74.79 -64.43,94.74 -100.19,110.53 -165.65,173.24 -349.88,302.47 -95.43,66.94 -167.57,100.85 -214.14,114.59 -11.62,3.43 -23.88,5.2 -31.22,6.04 z M 1576.82,913.176 c -73.34,39.605 -144.95,64.975 -273.46,113.314 -56.59,21.28 -111.89,76.03 -161.52,141.35 -104.1,137 -116.5,173.2 -148.174,246.51 -17.174,39.75 -47.071,111.96 -24.653,160.78 36.017,78.44 215.867,97.75 307.327,93.42 133.24,-6.31 218.04,-18.28 391.58,-83.73 186.18,-70.22 250.69,-89.16 272.51,-97.6 -4.4,-4.84 -7.9,-10.28 -11.17,-14.46 -89.91,5.17 -251.99,-44.44 -306.16,-168.55 -22.26,-50.98 -21.37,-106.24 -12.06,-154.2 6.38,-32.88 16.69,-62.27 25.91,-84.34 4.74,-11.34 -8.81,-26.17 -14.44,-37.1 -17.89,-34.714 -34.02,-76.645 -45.69,-115.394 z m -20.67,50.339 c 10.18,28.312 22.11,56.535 34.86,81.285 2.05,3.96 6.66,11.56 9.58,16.25 -8.95,22.61 -18.27,50.96 -24.33,82.2 -10.58,54.5 -10.92,117.22 14.36,175.14 40.77,93.4 135.89,149.75 224.28,174.77 -39.42,13.95 -91.28,32.78 -159.48,58.51 -168.76,63.64 -251.19,75.35 -380.76,81.48 -51.58,2.45 -133.1,-2.96 -197.35,-23.72 -34.74,-11.22 -65.11,-25.17 -76.1,-49.08 -6.221,-13.56 -5.637,-29.79 -3.13,-46.06 4.93,-31.97 18.74,-64.2 28.11,-85.89 30.74,-71.12 42.85,-106.2 143.86,-239.12 45.11,-59.37 94.35,-110.28 145.78,-129.63 108.76,-40.9 177.37,-65.731 240.32,-96.135 z m 1273.51,268.895 -0.13,0.03 0.13,-0.03 z m 6.31,-1.38 0.14,-0.03 -0.14,0.03 z"
       style="stroke:#000000;stroke-width:35.74189586;stroke-miterlimit:2;stroke-dasharray:none"
       id="path6"
       inkscape:connector-curvature="0" /><path
       style="fill:none;fill-rule:evenodd;stroke:#000000;stroke-width:94.55528004;stroke-linecap:butt;stroke-linejoin:miter;stroke-opacity:1;stroke-miterlimit:2;stroke-dasharray:none"
       d="m 3078.3311,1932.3945 c 12.4788,9.9831 64.8899,129.7798 64.8899,129.7798"
       id="path3793"
       inkscape:connector-curvature="0" /><path
       style="fill:none;fill-rule:evenodd;stroke:#000000;stroke-width:94.55528004;stroke-linecap:butt;stroke-linejoin:miter;stroke-opacity:1;stroke-miterlimit:2;stroke-dasharray:none"
       d="m 2571.6906,1285.9911 34.9407,94.8391"
       id="path3795"
       inkscape:connector-curvature="0" /><path
       style="fill:none;fill-rule:evenodd;stroke:#000000;stroke-width:94.55528004;stroke-linecap:butt;stroke-linejoin:miter;stroke-opacity:1;stroke-miterlimit:2;stroke-dasharray:none"
       d="m 1897.8338,1495.6354 32.4449,84.8561"
       id="path3797"
       inkscape:connector-curvature="0" /><path
       style="fill:none;fill-rule:evenodd;stroke:#000000;stroke-width:47.27764002;stroke-linecap:butt;stroke-linejoin:miter;stroke-opacity:1;stroke-miterlimit:2;stroke-dasharray:none"
       d="m 1021.8199,1178.6731 82.3603,54.9069"
       id="path3801"
       inkscape:connector-curvature="0" /></g><g
     transform="matrix(1.09218,0,0,1.09218,-1019.78,-634.506)"
     id="g8"><path
       style="fill:none;fill-rule:evenodd;stroke:#000000;stroke-width:11.71953869;stroke-linecap:butt;stroke-linejoin:miter;stroke-miterlimit:2;stroke-dasharray:none;stroke-opacity:1"
       d="M 1568.4863,1363.2673 1442.2777,1016.1938"
       id="path3784"
       inkscape:connector-curvature="0" /><path
       style="fill:none;fill-rule:evenodd;stroke:#000000;stroke-width:11.71953869;stroke-linecap:butt;stroke-linejoin:miter;stroke-miterlimit:2;stroke-dasharray:none;stroke-opacity:1"
       d="m 1481.2539,1242.0081 91.563,-28.4588"
       id="path3786"
       inkscape:connector-curvature="0" /><path
       style="fill:none;fill-rule:evenodd;stroke:#000000;stroke-width:11.71953869;stroke-linecap:butt;stroke-linejoin:miter;stroke-miterlimit:2;stroke-dasharray:none;stroke-opacity:1"
       d="m 1560.4436,1066.9247 -201.6862,73.6217 -1.2373,-0.6187"
       id="path3788"
       inkscape:connector-curvature="0" /><path
       style="fill:none;fill-rule:evenodd;stroke:#000000;stroke-width:11.71953869;stroke-linecap:butt;stroke-linejoin:miter;stroke-miterlimit:2;stroke-dasharray:none;stroke-opacity:1"
       d="m 1642.1079,1440.601 52.5869,-21.6534"
       id="path3790"
       inkscape:connector-curvature="0" /><path
       style="fill:none;fill-rule:evenodd;stroke:#000000;stroke-width:11.71953869;stroke-linecap:butt;stroke-linejoin:miter;stroke-miterlimit:2;stroke-dasharray:none;stroke-opacity:1"
       d="m 1481.2539,1418.9476 51.3496,-17.9414"
       id="path3792"
       inkscape:connector-curvature="0" /><path
       style="fill:none;fill-rule:evenodd;stroke:#000000;stroke-width:11.71953869;stroke-linecap:butt;stroke-linejoin:miter;stroke-miterlimit:2;stroke-dasharray:none;stroke-opacity:1"
       d="m 1308.0265,1030.4232 17.9414,47.0189"
       id="path3794"
       inkscape:connector-curvature="0" /><path
       style="fill:none;fill-rule:evenodd;stroke:#000000;stroke-width:11.71953869;stroke-linecap:butt;stroke-linejoin:miter;stroke-miterlimit:2;stroke-dasharray:none;stroke-opacity:1"
       d="m 1733.671,1203.6506 16.0854,15.4668"
       id="path3796"
       inkscape:connector-curvature="0" /><path
       style="fill:none;fill-rule:evenodd;stroke:#000000;stroke-width:11.71953869;stroke-linecap:butt;stroke-linejoin:miter;stroke-miterlimit:2;stroke-dasharray:none;stroke-opacity:1"
       d="m 1647.6759,1115.7996 3.0934,22.2721"
       id="path3798"
       inkscape:connector-curvature="0" /><path
       style="fill:none;fill-rule:evenodd;stroke:#000000;stroke-width:11.71953869;stroke-linecap:butt;stroke-linejoin:miter;stroke-miterlimit:2;stroke-dasharray:none;stroke-opacity:1"
       d="m 1308.6452,1208.6 0,17.9414 1.2373,1.856"
       id="path3800"
       inkscape:connector-curvature="0" /></g></svg>